<svg width="750" height="750" viewBox="0 0 750 750" fill="none" xmlns="http://www.w3.org/2000/svg">
<g clip-path="url(#clip0_1010_217)">
<path d="M374.612 6.54956L6.54944 377.391L374.612 742.676L742.676 375.539L374.612 6.54956Z" fill="url(#paint0_linear_1010_217)"/>
<mask id="mask0_1010_217" style="mask-type:alpha" maskUnits="userSpaceOnUse" x="6" y="98" width="737" height="553">
<path d="M374.612 98.7969L6.54932 377.392L374.612 650.891L742.675 375.539L374.612 98.7969Z" fill="#C4C4C4"/>
</mask>
<g mask="url(#mask0_1010_217)">
<path d="M6.54919 6.54919H970.659V743.004H6.54919V6.54919Z" fill="url(#paint1_linear_1010_217)"/>
</g>
<mask id="mask1_1010_217" style="mask-type:alpha" maskUnits="userSpaceOnUse" x="6" y="191" width="737" height="368">
<path d="M374.612 191.043L6.54932 377.127L374.612 558.992L742.675 375.481L374.612 191.043Z" fill="#C4C4C4"/>
</mask>
<g mask="url(#mask1_1010_217)">
<path d="M6.37659 6.51062H1479.29V742.966H6.37659V6.51062Z" fill="url(#paint2_linear_1010_217)"/>
</g>
<g filter="url(#filter0_d_1010_217)">
<path d="M213.838 484.553C213.838 462.256 217.406 443.228 224.541 427.471C231.676 411.417 244.46 393.728 262.892 374.403C281.028 355.079 293.514 338.579 300.352 324.903C307.487 311.227 311.055 296.957 311.055 282.092C311.055 268.713 308.825 259.497 304.366 254.443C300.204 249.092 293.96 246.416 285.636 246.416C268.69 246.416 260.217 256.673 260.217 277.186V310.633H213.838V280.308C213.838 255.038 220.081 235.713 232.568 222.335C245.054 208.659 263.19 201.821 286.974 201.821C310.758 201.821 328.893 208.659 341.38 222.335C353.866 235.713 360.109 255.038 360.109 280.308C360.109 299.335 355.501 317.916 346.285 336.052C337.366 354.187 321.758 374.998 299.46 398.485C284.893 413.944 275.082 426.58 270.028 436.39C264.974 445.904 262.446 456.161 262.446 467.161V473.85H355.65V518.445H213.838V484.553ZM475.339 461.81H381.689V417.215L470.879 206.28H524.393V417.215H547.583V461.81H524.393V518.445H475.339V461.81ZM475.339 417.215V295.47H474.447L426.284 417.215H475.339Z" fill="#FFF6E6"/>
<path d="M213.838 484.553C213.838 462.256 217.406 443.228 224.541 427.471C231.676 411.417 244.46 393.728 262.892 374.403C281.028 355.079 293.514 338.579 300.352 324.903C307.487 311.227 311.055 296.957 311.055 282.092C311.055 268.713 308.825 259.497 304.366 254.443C300.204 249.092 293.96 246.416 285.636 246.416C268.69 246.416 260.217 256.673 260.217 277.186V310.633H213.838V280.308C213.838 255.038 220.081 235.713 232.568 222.335C245.054 208.659 263.19 201.821 286.974 201.821C310.758 201.821 328.893 208.659 341.38 222.335C353.866 235.713 360.109 255.038 360.109 280.308C360.109 299.335 355.501 317.916 346.285 336.052C337.366 354.187 321.758 374.998 299.46 398.485C284.893 413.944 275.082 426.58 270.028 436.39C264.974 445.904 262.446 456.161 262.446 467.161V473.85H355.65V518.445H213.838V484.553ZM475.339 461.81H381.689V417.215L470.879 206.28H524.393V417.215H547.583V461.81H524.393V518.445H475.339V461.81ZM475.339 417.215V295.47H474.447L426.284 417.215H475.339Z" fill="url(#paint3_linear_1010_217)" fill-opacity="0.4"/>
</g>
</g>
<defs>
<filter id="filter0_d_1010_217" x="183.838" y="181.821" width="393.745" height="376.625" filterUnits="userSpaceOnUse" color-interpolation-filters="sRGB">
<feFlood flood-opacity="0" result="BackgroundImageFix"/>
<feColorMatrix in="SourceAlpha" type="matrix" values="0 0 0 0 0 0 0 0 0 0 0 0 0 0 0 0 0 0 127 0" result="hardAlpha"/>
<feOffset dy="10"/>
<feGaussianBlur stdDeviation="15"/>
<feComposite in2="hardAlpha" operator="out"/>
<feColorMatrix type="matrix" values="0 0 0 0 0.0710416 0 0 0 0 0.352625 0 0 0 0 0.775 0 0 0 1 0"/>
<feBlend mode="normal" in2="BackgroundImageFix" result="effect1_dropShadow_1010_217"/>
<feBlend mode="normal" in="SourceGraphic" in2="effect1_dropShadow_1010_217" result="shape"/>
</filter>
<linearGradient id="paint0_linear_1010_217" x1="6.54931" y1="374.613" x2="742.675" y2="374.613" gradientUnits="userSpaceOnUse">
<stop stop-color="#AAEDA4"/>
<stop offset="0.3333" stop-color="#39EA1C"/>
<stop offset="0.6667" stop-color="#0D9F36"/>
<stop offset="1" stop-color="#09412D"/>
</linearGradient>
<linearGradient id="paint1_linear_1010_217" x1="6.54903" y1="374.777" x2="970.658" y2="374.777" gradientUnits="userSpaceOnUse">
<stop stop-color="#BBEDA4"/>
<stop offset="0.3333" stop-color="#1CEA31"/>
<stop offset="0.6667" stop-color="#0D9F24"/>
<stop offset="1" stop-color="#094129"/>
</linearGradient>
<linearGradient id="paint2_linear_1010_217" x1="6.37634" y1="374.738" x2="1479.29" y2="374.738" gradientUnits="userSpaceOnUse">
<stop stop-color="#AAEDA4"/>
<stop offset="0.3333" stop-color="#5CF237"/>
<stop offset="0.6667" stop-color="#0D9F24"/>
<stop offset="1" stop-color="#09413A"/>
</linearGradient>
<linearGradient id="paint3_linear_1010_217" x1="-128" y1="117.445" x2="878" y2="117.445" gradientUnits="userSpaceOnUse">
<stop stop-color="#544D40"/>
<stop offset="0.166667" stop-color="#ACA495"/>
<stop offset="0.333333" stop-color="#DBD2C3"/>
<stop offset="0.5" stop-color="#E9E0D1"/>
<stop offset="0.666667" stop-color="#DBD2C3"/>
<stop offset="0.833333" stop-color="#ACA495"/>
<stop offset="1" stop-color="#544D40"/>
</linearGradient>
<clipPath id="clip0_1010_217">
<rect width="750" height="750" fill="white"/>
</clipPath>
</defs>
</svg>
