<svg width="400" height="71" viewBox="0 0 400 71" fill="none" xmlns="http://www.w3.org/2000/svg">
<g clip-path="url(#clip0_3165_315)">
<path d="M129.988 25.7C129.273 23.189 127.947 21.226 126.011 19.814C124.092 18.384 121.676 17.668 118.763 17.668C114.664 17.668 111.341 19.186 108.795 22.221C106.265 25.238 105.001 29.538 105.001 35.12C105.001 40.72 106.248 45.045 108.742 48.097C111.237 51.15 114.612 52.677 118.868 52.677C122.636 52.677 125.592 51.699 127.738 49.746C129.901 47.775 131.017 45.132 131.087 41.818H119.574V33.288H141.997V40.038C141.997 44.731 141.003 48.778 139.015 52.179C137.026 55.563 134.288 58.162 130.799 59.976C127.328 61.79 123.333 62.697 118.816 62.697C113.792 62.697 109.379 61.59 105.576 59.374C101.774 57.142 98.809 53.976 96.68 49.877C94.57 45.76 93.514 40.876 93.514 35.224C93.514 29.434 94.622 24.48 96.837 20.363C99.053 16.246 102.053 13.098 105.838 10.918C109.623 8.73804 113.871 7.64704 118.58 7.64704C122.627 7.64704 126.29 8.41504 129.569 9.95004C132.849 11.485 135.535 13.613 137.628 16.334C139.721 19.037 141.012 22.16 141.5 25.701H129.988V25.7ZM147.351 61.965V21.775H158.157V28.788H158.576C159.308 26.294 160.538 24.41 162.265 23.136C163.992 21.846 165.98 21.2 168.23 21.2C169.41 21.1936 170.587 21.3255 171.736 21.593V31.483C171.213 31.308 170.489 31.169 169.565 31.064C168.724 30.9478 167.876 30.8867 167.027 30.881C164.567 30.881 162.526 31.657 160.904 33.21C159.299 34.745 158.497 36.75 158.497 39.228V61.965H147.351ZM184.861 62.724C181.023 62.724 177.84 61.721 175.311 59.714C172.781 57.709 171.517 54.717 171.517 50.74C171.517 47.74 172.223 45.385 173.636 43.676C175.049 41.966 176.898 40.719 179.183 39.934C181.486 39.132 183.962 38.609 186.614 38.364C190.102 38.015 192.597 37.649 194.097 37.265C195.597 36.882 196.347 36.045 196.347 34.754V34.597C196.347 32.939 195.824 31.657 194.777 30.75C193.748 29.843 192.283 29.39 190.381 29.39C188.376 29.39 186.779 29.826 185.594 30.698C184.407 31.57 183.622 32.678 183.239 34.021L172.93 33.184C173.697 29.521 175.599 26.616 178.634 24.471C181.686 22.325 185.62 21.253 190.434 21.253C193.416 21.253 196.207 21.723 198.806 22.666C201.406 23.607 203.499 25.081 205.086 27.087C206.691 29.076 207.493 31.667 207.493 34.858V61.965H196.923V56.39H196.609C195.632 58.257 194.167 59.783 192.213 60.97C190.277 62.138 187.826 62.723 184.861 62.723V62.724ZM188.053 55.031C190.495 55.031 192.501 54.325 194.071 52.911C195.641 51.481 196.426 49.711 196.426 47.601V43.336C195.989 43.632 195.309 43.894 194.385 44.12C193.478 44.347 192.501 44.548 191.454 44.722C190.53 44.8632 189.606 45.0029 188.681 45.141C186.727 45.42 185.149 45.969 183.945 46.789C182.759 47.609 182.166 48.804 182.166 50.374C182.166 51.909 182.715 53.069 183.814 53.854C184.931 54.639 186.344 55.031 188.053 55.031ZM234.805 21.776V30.148H226.825V61.965H215.679V30.148H210.001V21.776H215.679V18.872C215.679 14.493 216.926 11.232 219.421 9.08604C221.932 6.94104 225.081 5.86804 228.866 5.86804C230.575 5.86804 232.136 5.99804 233.549 6.26004C234.98 6.52204 236.044 6.75704 236.741 6.96704L234.779 15.339C234.343 15.199 233.802 15.069 233.157 14.947C232.511 14.825 231.857 14.764 231.195 14.764C229.555 14.764 228.412 15.148 227.767 15.915C227.139 16.665 226.825 17.72 226.825 19.081V21.776H234.805ZM238.877 61.965V8.38004H250.023V28.526H250.363C250.869 27.427 251.584 26.32 252.509 25.203C253.433 24.087 254.654 23.153 256.171 22.403C257.689 21.636 259.564 21.253 261.797 21.253C264.745 21.253 267.449 22.02 269.908 23.555C272.367 25.073 274.339 27.366 275.821 30.436C277.321 33.489 278.071 37.318 278.071 41.923C278.071 46.406 277.347 50.191 275.9 53.278C274.452 56.348 272.498 58.677 270.039 60.264C267.579 61.834 264.823 62.619 261.771 62.619C259.608 62.619 257.768 62.261 256.25 61.546C254.75 60.831 253.52 59.933 252.561 58.851C251.619 57.752 250.886 56.644 250.363 55.528H249.866V61.965H238.877ZM249.787 41.87C249.787 45.446 250.52 48.324 251.985 50.505C253.468 52.668 255.552 53.749 258.239 53.749C260.977 53.749 263.07 52.65 264.518 50.452C265.966 48.237 266.69 45.377 266.69 41.87C266.69 38.382 265.966 35.556 264.518 33.393C263.088 31.213 260.995 30.123 258.239 30.123C255.535 30.123 253.45 31.186 251.985 33.314C250.52 35.425 249.787 38.277 249.787 41.87ZM294.021 62.724C290.184 62.724 287.001 61.721 284.471 59.714C281.942 57.709 280.678 54.717 280.678 50.74C280.678 47.74 281.384 45.385 282.797 43.676C284.21 41.966 286.059 40.719 288.344 39.934C290.646 39.132 293.123 38.609 295.774 38.364C299.262 38.015 301.759 37.649 303.259 37.265C304.759 36.882 305.509 36.045 305.509 34.754V34.597C305.509 32.939 304.985 31.657 303.938 30.75C302.909 29.843 301.444 29.39 299.541 29.39C297.535 29.39 295.941 29.826 294.753 30.698C293.568 31.57 292.783 32.678 292.399 34.021L282.091 33.184C282.858 29.521 284.759 26.616 287.794 24.471C290.847 22.325 294.779 21.253 299.594 21.253C302.576 21.253 305.368 21.723 307.968 22.666C310.568 23.607 312.659 25.081 314.247 27.087C315.853 29.076 316.653 31.667 316.653 34.858V61.965H306.082V56.39H305.771C304.791 58.257 303.326 59.783 301.374 60.97C299.438 62.138 296.988 62.723 294.021 62.723V62.724ZM297.215 55.031C299.656 55.031 301.662 54.325 303.232 52.911C304.8 51.481 305.585 49.711 305.585 47.601V43.336C305.15 43.632 304.471 43.894 303.544 44.12C302.576 44.3595 301.599 44.5603 300.615 44.722C299.585 44.879 298.662 45.019 297.841 45.141C295.888 45.42 294.309 45.969 293.106 46.789C291.92 47.609 291.326 48.804 291.326 50.374C291.326 51.909 291.876 53.069 292.975 53.854C294.091 54.639 295.503 55.031 297.215 55.031ZM355.791 33.236L345.588 33.864C345.309 32.574 344.603 31.466 343.468 30.541C342.335 29.616 340.8 29.154 338.865 29.154C337.138 29.154 335.671 29.521 334.468 30.254C333.282 30.968 332.697 31.928 332.715 33.131C332.697 34.091 333.074 34.901 333.841 35.565C334.626 36.227 335.95 36.759 337.818 37.161L345.091 38.626C352.818 40.213 356.691 43.842 356.709 49.51C356.709 52.144 355.932 54.456 354.379 56.444C352.844 58.432 350.735 59.985 348.047 61.101C345.362 62.201 342.282 62.75 338.812 62.75C333.491 62.75 329.253 61.642 326.097 59.427C322.938 57.194 321.097 54.159 320.574 50.322L331.538 49.746C331.885 51.386 332.688 52.624 333.944 53.461C335.218 54.298 336.85 54.717 338.838 54.717C340.791 54.717 342.362 54.333 343.547 53.566C344.75 52.798 345.362 51.821 345.379 50.636C345.326 48.646 343.609 47.313 340.224 46.632L333.265 45.246C325.485 43.693 321.612 39.864 321.647 33.759C321.629 29.887 323.174 26.834 326.279 24.602C329.4 22.369 333.535 21.252 338.679 21.252C343.756 21.252 347.75 22.325 350.665 24.471C353.594 26.616 355.303 29.538 355.791 33.236ZM379.094 62.75C374.979 62.75 371.429 61.912 368.447 60.238C365.462 58.546 363.171 56.156 361.565 53.068C359.959 49.964 359.159 46.292 359.159 42.054C359.159 37.919 359.959 34.291 361.565 31.169C363.171 28.047 365.429 25.613 368.341 23.869C371.271 22.125 374.709 21.253 378.65 21.253C382.191 21.253 385.382 22.003 388.226 23.503C391.088 25.003 393.356 27.27 395.029 30.306C396.703 33.323 397.541 37.108 397.541 41.661V44.722H370.174V44.748C370.174 47.748 370.991 50.112 372.632 51.839C374.271 53.566 376.488 54.429 379.279 54.429C381.144 54.429 382.759 54.037 384.118 53.252C385.479 52.467 386.438 51.307 386.997 49.772L397.306 50.452C396.521 54.185 394.532 57.168 391.341 59.401C388.147 61.633 384.065 62.75 379.094 62.75ZM370.174 37.815H387.05C387.032 35.425 386.265 33.455 384.747 31.902C383.229 30.349 381.259 29.572 378.832 29.572C376.356 29.572 374.324 30.375 372.738 31.98C371.15 33.585 370.294 35.53 370.174 37.815Z" fill="white"/>
<path fill-rule="evenodd" clip-rule="evenodd" d="M37.792 1.54098C37.9558 1.86828 38.0535 2.22465 38.0795 2.58972C38.1055 2.95479 38.0594 3.32142 37.9436 3.66864C37.8279 4.01587 37.6449 4.33689 37.4051 4.61337C37.1653 4.88985 36.8734 5.11637 36.546 5.27998L9.01796 19.044L35.334 32.202L61.645 19.046L51.592 14.03L36.562 21.537C36.2338 21.708 35.8749 21.8119 35.5062 21.8427C35.1374 21.8735 34.7662 21.8306 34.4143 21.7164C34.0623 21.6023 33.7366 21.4192 33.4561 21.1778C33.1756 20.9364 32.9461 20.6416 32.7807 20.3106C32.6154 19.9795 32.5177 19.6189 32.4932 19.2497C32.4687 18.8805 32.518 18.5101 32.6382 18.1601C32.7584 17.8101 32.9471 17.4876 33.1933 17.2113C33.4394 16.9351 33.7381 16.7106 34.072 16.551L50.346 8.42198C50.7324 8.22902 51.1585 8.12857 51.5905 8.12857C52.0224 8.12857 52.4485 8.22902 52.835 8.42198L69.126 16.55C69.5891 16.7812 69.9787 17.1369 70.2511 17.5771C70.5234 18.0173 70.6678 18.5247 70.668 19.0424C70.6682 19.56 70.5243 20.0675 70.2523 20.508C69.9802 20.9484 69.5909 21.3044 69.128 21.536L36.616 37.792C36.204 37.998 35.766 38.092 35.336 38.087C34.8909 38.0931 34.4509 37.9923 34.053 37.793L1.53996 21.536C1.07716 21.3045 0.687963 20.9487 0.415956 20.5084C0.14395 20.0682 -0.00012207 19.561 -0.00012207 19.0435C-0.00012207 18.526 0.14395 18.0187 0.415956 17.5785C0.687963 17.1383 1.07716 16.7825 1.53996 16.551L34.053 0.294982C34.714 -0.0355588 35.4793 -0.0899816 36.1805 0.143684C36.8817 0.377349 37.4613 0.879966 37.792 1.54098ZM0.337957 50.299C0.50158 49.9716 0.728086 49.6796 1.00454 49.4398C1.281 49.1999 1.60199 49.0169 1.94919 48.9011C2.29639 48.7853 2.663 48.739 3.02808 48.7649C3.39316 48.7908 3.74957 48.8883 4.07696 49.052L35.343 64.686L66.609 49.052C67.2701 48.7214 68.0356 48.667 68.7369 48.9008C69.4382 49.1345 70.0179 49.6373 70.3485 50.2985C70.679 50.9597 70.7334 51.7251 70.4997 52.4264C70.2659 53.1277 69.7631 53.7074 69.102 54.038L36.589 70.294C36.2021 70.4874 35.7755 70.5881 35.343 70.5881C34.9104 70.5881 34.4838 70.4874 34.097 70.294L1.58396 54.038C1.25653 53.8743 0.964557 53.6477 0.724724 53.3711C0.484892 53.0945 0.301895 52.7734 0.186188 52.4261C0.0704802 52.0788 0.0243288 51.7121 0.0503697 51.3469C0.0764107 50.9818 0.174134 50.6254 0.337957 50.298V50.299Z" fill="white"/>
<path fill-rule="evenodd" clip-rule="evenodd" d="M0.337951 34.041C0.668581 33.38 1.24824 32.8774 1.94942 32.6437C2.6506 32.41 3.41589 32.4644 4.07695 32.795L35.3429 48.428L66.609 32.795C67.2688 32.4745 68.0284 32.4271 68.7229 32.6631C69.4175 32.899 69.991 33.3993 70.3191 34.0554C70.6472 34.7115 70.7035 35.4704 70.4756 36.1677C70.2477 36.865 69.7542 37.4443 69.102 37.78L36.589 54.036C36.202 54.2292 35.7754 54.3298 35.3429 54.3298C34.9105 54.3298 34.4839 54.2292 34.097 54.036L1.58395 37.78C0.922935 37.4494 0.420318 36.8697 0.186653 36.1685C-0.0470129 35.4673 0.00740999 34.702 0.337951 34.041Z" fill="white"/>
</g>
<defs>
<clipPath id="clip0_3165_315">
<rect width="400" height="71" fill="white"/>
</clipPath>
</defs>
</svg>
