<svg width="330" height="118" viewBox="0 0 330 118" fill="none" xmlns="http://www.w3.org/2000/svg">
<path d="M43 112.5L15.5 101L43 91L70.5 101L43 112.5Z" fill="#F39800"/>
<path d="M34.5 44.5L40.5 81.5L15.5 90L6 52.5L34.5 44.5Z" fill="#8FC31F"/>
<path d="M33 68.5L38 104L9 93L4 57L33 68.5Z" fill="#E3E143"/>
<path d="M51.5 44.5L46.5 82.5L74.5 90.5L79.5 52L51.5 44.5Z" fill="#036EB8"/>
<path d="M78.5 45L51.5 36.5L37 5L65 12.5L78.5 45Z" fill="#920783"/>
<path d="M76.5 93.5L48.5 104L53.5 67.5L81.5 57.5L76.5 93.5Z" fill="#E60012"/>
<path d="M113.5 93C113.5 93 113.5 72.5 113.5 63M113.5 55V63M113.5 63C121.115 70.2247 125.385 74.2753 133 81.5" stroke="white" stroke-width="5"/>
<path d="M133 93V55" stroke="white" stroke-width="5"/>
<path d="M154 93V55" stroke="white" stroke-width="5"/>
<path d="M182 55V81C182 81 184.5 90.5 168.5 90.5" stroke="white" stroke-width="5"/>
<path d="M206 93V55" stroke="white" stroke-width="5"/>
<path d="M238 71.5H227M238 71.5C238 71.5 245.5 73.5 245.5 81.25C245.5 89 238 90 238 90H227V71.5M238 71.5C238 71.5 245.5 71 245.5 64.25C245.5 57.5 238 57 238 57H227V71.5" stroke="white" stroke-width="5"/>
<path d="M302.5 56C302.5 56 302.5 53.5 302.5 61C302.5 68.5 322 77 322 84.5C322 92 322 92.5 322 92.5" stroke="white" stroke-width="5"/>
<path d="M322 56C322 56 322 53.5 322 61C322 68.5 302.5 77 302.5 84.5C302.5 92 302.5 92.5 302.5 92.5" stroke="white" stroke-width="5"/>
<path d="M284 81.5V66.5C284 66.5 285.5 57.5 274.25 57.5C263 57.5 264.5 66.5 264.5 66.5L264.5 81.5C264.5 81.5 264.5 90 274.25 90C284 90 284 81.5 284 81.5Z" stroke="white" stroke-width="5"/>
</svg>
