<svg width="250" height="250" viewBox="0 0 250 250" fill="none" xmlns="http://www.w3.org/2000/svg">
<g clip-path="url(#clip0_313_540)">
<rect width="250" height="250" fill="white"/>
<path d="M53.3331 84.3096L18.0439 186.3L124.022 206.479L53.3331 84.3096Z" fill="#FF9FD7"/>
<path d="M53.333 84.3099L124.022 2.74097L18.0438 63.9275L53.333 84.3099Z" fill="#F472C3"/>
<path d="M18.0439 63.9277V186.301L53.3331 84.3102L18.0439 63.9277Z" fill="#E166B2"/>
<path d="M194.402 84.3102L124.022 2.74121L53.3331 84.3102H194.402Z" fill="#FF98D5"/>
<path d="M194.402 84.3102L230 186.301V63.9277L194.402 84.3102Z" fill="#E166B2"/>
<path d="M230 63.9277L124.022 2.74121L194.402 84.3102L230 63.9277Z" fill="#F472C3"/>
<path d="M124.022 206.479L230 186.3L194.402 84.3096L124.022 206.479Z" fill="#FF9FD7"/>
<path d="M18.0439 186.301L124.022 247.487V206.48L18.0439 186.301Z" fill="#C63C98"/>
<path d="M124.022 247.487L230 186.301L124.022 206.48V247.487Z" fill="#C63C98"/>
<path d="M124.022 206.479L194.402 84.3096H53.3331L124.022 206.479Z" fill="#FFB8E4"/>
<path d="M53.3331 84.3096L18.0439 186.3L124.022 206.479L53.3331 84.3096Z" fill="url(#paint0_linear_313_540)"/>
<path d="M53.333 84.3099L124.022 2.74097L18.0438 63.9275L53.333 84.3099Z" fill="url(#paint1_linear_313_540)"/>
<path d="M18.0439 63.9277V186.301L53.3331 84.3102L18.0439 63.9277Z" fill="url(#paint2_linear_313_540)"/>
<path d="M194.402 84.3102L124.022 2.74121L53.3331 84.3102H194.402Z" fill="url(#paint3_linear_313_540)"/>
<path d="M194.402 84.3102L230 186.301V63.9277L194.402 84.3102Z" fill="url(#paint4_linear_313_540)"/>
<path d="M230 63.9277L124.022 2.74121L194.402 84.3102L230 63.9277Z" fill="url(#paint5_linear_313_540)"/>
<path d="M124.022 206.479L230 186.3L194.402 84.3096L124.022 206.479Z" fill="url(#paint6_linear_313_540)"/>
<path d="M18.0439 186.301L124.022 247.487V206.48L18.0439 186.301Z" fill="url(#paint7_linear_313_540)"/>
<path d="M124.022 247.487L230 186.301L124.022 206.48V247.487Z" fill="url(#paint8_linear_313_540)"/>
<path d="M124.022 206.479L194.402 84.3096H53.3331L124.022 206.479Z" fill="url(#paint9_linear_313_540)"/>
<g style="mix-blend-mode:soft-light">
<path d="M101.725 97.6971C101.725 131.275 65.4875 136.926 65.4875 171.169V185.464H118.347V168.842H83.7723C83.6061 168.011 83.6061 167.18 83.6061 166.348C83.6061 147.232 120.01 133.602 120.01 97.0322C120.01 78.4149 110.701 67.7764 92.7485 67.7764C74.7961 67.7764 65.4875 78.4149 65.4875 97.0322V108.336H82.775V95.8686C82.775 87.5573 86.4319 84.399 92.2498 84.399C98.0677 84.399 101.725 87.2248 101.725 97.6971ZM167.631 97.6971C167.631 131.275 131.393 136.926 131.393 171.169V185.464H184.253V168.842H149.678C149.512 168.011 149.512 167.18 149.512 166.348C149.512 147.232 185.916 133.602 185.916 97.0322C185.916 78.4149 176.607 67.7764 158.654 67.7764C140.702 67.7764 131.393 78.4149 131.393 97.0322V108.336H148.681V95.8686C148.681 87.5573 152.338 84.399 158.156 84.399C163.974 84.399 167.631 87.2248 167.631 97.6971Z" fill="white"/>
</g>
</g>
<defs>
<linearGradient id="paint0_linear_313_540" x1="17.9896" y1="186.206" x2="88.7356" y2="145.361" gradientUnits="userSpaceOnUse">
<stop stop-color="white" stop-opacity="0.4"/>
<stop offset="1" stop-color="white" stop-opacity="0"/>
</linearGradient>
<linearGradient id="paint1_linear_313_540" x1="26.8679" y1="79.2112" x2="132.846" y2="18.0247" gradientUnits="userSpaceOnUse">
<stop stop-color="white" stop-opacity="0.4"/>
<stop offset="1" stop-color="white" stop-opacity="0"/>
</linearGradient>
<linearGradient id="paint2_linear_313_540" x1="-8.45058" y1="140.411" x2="62.1795" y2="99.6326" gradientUnits="userSpaceOnUse">
<stop stop-color="white" stop-opacity="0.4"/>
<stop offset="1" stop-color="white" stop-opacity="0"/>
</linearGradient>
<linearGradient id="paint3_linear_313_540" x1="62.1427" y1="99.5688" x2="167.944" y2="38.4841" gradientUnits="userSpaceOnUse">
<stop stop-color="white" stop-opacity="0.4"/>
<stop offset="1" stop-color="white" stop-opacity="0"/>
</linearGradient>
<linearGradient id="paint4_linear_313_540" x1="203.469" y1="140.347" x2="256.458" y2="109.754" gradientUnits="userSpaceOnUse">
<stop stop-color="white" stop-opacity="0.4"/>
<stop offset="1" stop-color="white" stop-opacity="0"/>
</linearGradient>
<linearGradient id="paint5_linear_313_540" x1="115.031" y1="27.445" x2="228.277" y2="68.6631" gradientUnits="userSpaceOnUse">
<stop stop-color="white" stop-opacity="0.4"/>
<stop offset="1" stop-color="white" stop-opacity="0"/>
</linearGradient>
<linearGradient id="paint6_linear_313_540" x1="115.247" y1="191.281" x2="220.933" y2="130.263" gradientUnits="userSpaceOnUse">
<stop stop-color="white" stop-opacity="0.4"/>
<stop offset="1" stop-color="white" stop-opacity="0"/>
</linearGradient>
<linearGradient id="paint7_linear_313_540" x1="44.5385" y1="232.191" x2="115.284" y2="191.345" gradientUnits="userSpaceOnUse">
<stop stop-color="white" stop-opacity="0.4"/>
<stop offset="1" stop-color="white" stop-opacity="0"/>
</linearGradient>
<linearGradient id="paint8_linear_313_540" x1="115.144" y1="232.109" x2="221.122" y2="170.923" gradientUnits="userSpaceOnUse">
<stop stop-color="white" stop-opacity="0.4"/>
<stop offset="1" stop-color="white" stop-opacity="0"/>
</linearGradient>
<linearGradient id="paint9_linear_313_540" x1="88.6197" y1="145.428" x2="194.421" y2="84.343" gradientUnits="userSpaceOnUse">
<stop stop-color="white" stop-opacity="0.5"/>
<stop offset="1" stop-color="white" stop-opacity="0"/>
</linearGradient>
<clipPath id="clip0_313_540">
<rect width="250" height="250" fill="white"/>
</clipPath>
</defs>
</svg>
