<svg width="750" height="750" viewBox="0 0 750 750" fill="none" xmlns="http://www.w3.org/2000/svg">
<path d="M375.141 8.12451L4.99792 377.978L375.141 742.288L745.284 376.13L375.141 8.12451Z" fill="url(#paint0_linear_2_1109)"/>
<mask id="mask0_2_1109" style="mask-type:alpha" maskUnits="userSpaceOnUse" x="4" y="100" width="742" height="551">
<path d="M375.14 100.125L4.99683 377.977L375.14 650.747L745.283 376.13L375.14 100.125Z" fill="#C4C4C4"/>
</mask>
<g mask="url(#mask0_2_1109)">
<path d="M4.99683 8.12402H974.555V742.615H4.99683V8.12402Z" fill="url(#paint1_linear_2_1109)"/>
</g>
<mask id="mask1_2_1109" style="mask-type:alpha" maskUnits="userSpaceOnUse" x="4" y="192" width="742" height="368">
<path d="M375.14 192.126L4.99683 377.713L375.14 559.094L745.283 376.072L375.14 192.126Z" fill="#C4C4C4"/>
</mask>
<g mask="url(#mask1_2_1109)">
<path d="M4.82349 8.08496H1486.06V742.576H4.82349V8.08496Z" fill="url(#paint2_linear_2_1109)"/>
</g>
<g filter="url(#filter0_d_2_1109)">
<path d="M319.092 296.678C319.092 384.679 224.121 399.491 224.121 489.235V526.701H362.657V483.136H272.042C271.607 480.958 271.607 478.779 271.607 476.601C271.607 426.502 367.014 390.778 367.014 294.936C367.014 246.143 342.617 218.262 295.567 218.262C248.517 218.262 224.121 246.143 224.121 294.936V324.56H269.429V291.886C269.429 270.104 279.013 261.827 294.26 261.827C309.508 261.827 319.092 269.233 319.092 296.678Z" fill="#FFF6E6"/>
<path d="M426.473 294.065H463.503V526.701H511.424V221.747H479.186C471.78 242.222 463.503 260.084 426.473 260.084V294.065Z" fill="#FFF6E6"/>
<path d="M221.621 526.701V529.201H224.121H362.657H365.157V526.701V483.136V480.636H362.657H274.217C274.11 479.366 274.107 478.044 274.107 476.601C274.107 464.892 279.677 453.807 288.512 442.061C294.511 434.086 301.821 426.04 309.655 417.417C313.409 413.286 317.282 409.023 321.189 404.571C345.146 377.278 369.514 343.797 369.514 294.936C369.514 270.154 363.318 250.294 350.777 236.612C338.203 222.895 319.593 215.762 295.567 215.762C271.542 215.762 252.932 222.895 240.358 236.612C227.816 250.294 221.621 270.154 221.621 294.936V324.56V327.06H224.121H269.429H271.929V324.56V291.886C271.929 281.306 274.263 274.506 277.987 270.358C281.662 266.265 287.08 264.327 294.26 264.327C301.496 264.327 306.818 266.073 310.456 270.539C314.208 275.146 316.592 283.141 316.592 296.678C316.592 339.49 293.668 364.517 269.949 390.412L269.763 390.615C246.042 416.512 221.621 443.299 221.621 489.235V526.701ZM423.973 294.065V296.565H426.473H461.003V526.701V529.201H463.503H511.424H513.924V526.701V221.747V219.247H511.424H479.186H477.432L476.835 220.897C473.125 231.156 469.37 240.19 462.245 246.755C455.22 253.228 444.576 257.584 426.473 257.584H423.973V260.084V294.065Z" stroke="#FFF6E6" stroke-width="5"/>
</g>
<defs>
<filter id="filter0_d_2_1109" x="189.121" y="193.262" width="357.303" height="378.439" filterUnits="userSpaceOnUse" color-interpolation-filters="sRGB">
<feFlood flood-opacity="0" result="BackgroundImageFix"/>
<feColorMatrix in="SourceAlpha" type="matrix" values="0 0 0 0 0 0 0 0 0 0 0 0 0 0 0 0 0 0 127 0" result="hardAlpha"/>
<feOffset dy="10"/>
<feGaussianBlur stdDeviation="15"/>
<feComposite in2="hardAlpha" operator="out"/>
<feColorMatrix type="matrix" values="0 0 0 0 0.775 0 0 0 0 0.0710416 0 0 0 0 0.4376 0 0 0 1 0"/>
<feBlend mode="normal" in2="BackgroundImageFix" result="effect1_dropShadow_2_1109"/>
<feBlend mode="normal" in="SourceGraphic" in2="effect1_dropShadow_2_1109" result="shape"/>
</filter>
<linearGradient id="paint0_linear_2_1109" x1="4.9978" y1="375.206" x2="745.284" y2="375.206" gradientUnits="userSpaceOnUse">
<stop stop-color="#EDE1A4"/>
<stop offset="0.3333" stop-color="#EA1C78"/>
<stop offset="0.6667" stop-color="#9F0D63"/>
<stop offset="1" stop-color="#41092E"/>
</linearGradient>
<linearGradient id="paint1_linear_2_1109" x1="4.99666" y1="375.37" x2="974.554" y2="375.37" gradientUnits="userSpaceOnUse">
<stop stop-color="#EDE1A4"/>
<stop offset="0.3333" stop-color="#EA1C78"/>
<stop offset="0.6667" stop-color="#9F0D63"/>
<stop offset="1" stop-color="#41092E"/>
</linearGradient>
<linearGradient id="paint2_linear_2_1109" x1="4.82324" y1="375.331" x2="1486.06" y2="375.331" gradientUnits="userSpaceOnUse">
<stop stop-color="#EDE1A4"/>
<stop offset="0.3333" stop-color="#EA1C78"/>
<stop offset="0.6667" stop-color="#9F0D63"/>
<stop offset="1" stop-color="#41092E"/>
</linearGradient>
</defs>
</svg>
