<svg width="750" height="750" viewBox="0 0 750 750" fill="none" xmlns="http://www.w3.org/2000/svg">
<path d="M374.612 6.54956L6.54944 377.391L374.612 742.676L742.676 375.539L374.612 6.54956Z" fill="url(#paint0_linear_201_586)"/>
<mask id="mask0_201_586" style="mask-type:alpha" maskUnits="userSpaceOnUse" x="6" y="98" width="737" height="553">
<path d="M374.612 98.7969L6.54932 377.392L374.612 650.891L742.675 375.539L374.612 98.7969Z" fill="#C4C4C4"/>
</mask>
<g mask="url(#mask0_201_586)">
<path d="M6.54919 6.54919H970.659V743.004H6.54919V6.54919Z" fill="url(#paint1_linear_201_586)"/>
</g>
<mask id="mask1_201_586" style="mask-type:alpha" maskUnits="userSpaceOnUse" x="6" y="191" width="737" height="368">
<path d="M374.612 191.043L6.54932 377.127L374.612 558.992L742.675 375.481L374.612 191.043Z" fill="#C4C4C4"/>
</mask>
<g mask="url(#mask1_201_586)">
<path d="M6.37659 6.51062H1479.29V742.966H6.37659V6.51062Z" fill="url(#paint2_linear_201_586)"/>
</g>
<g filter="url(#filter0_d_201_586)">
<path d="M314.67 282.882C314.67 370.883 219.698 385.695 219.698 475.439V512.905H358.234V469.34H267.62C267.184 467.162 267.184 464.983 267.184 462.805C267.184 412.705 362.591 376.982 362.591 281.14C362.591 232.347 338.195 204.466 291.145 204.466C244.095 204.466 219.698 232.347 219.698 281.14V310.764H265.006V278.09C265.006 256.308 274.59 248.03 289.838 248.03C305.085 248.03 314.67 255.436 314.67 282.882Z" fill="#FFF6E6"/>
<path d="M314.67 282.882C314.67 370.883 219.698 385.695 219.698 475.439V512.905H358.234V469.34H267.62C267.184 467.162 267.184 464.983 267.184 462.805C267.184 412.705 362.591 376.982 362.591 281.14C362.591 232.347 338.195 204.466 291.145 204.466C244.095 204.466 219.698 232.347 219.698 281.14V310.764H265.006V278.09C265.006 256.308 274.59 248.03 289.838 248.03C305.085 248.03 314.67 255.436 314.67 282.882Z" fill="url(#paint3_linear_201_586)" fill-opacity="0.4"/>
</g>
<g filter="url(#filter1_d_201_586)">
<path d="M463 513.293C439.622 513.293 421.872 506.799 409.75 493.811C397.917 480.823 392 462.207 392 437.963V413.287H437.024V440.128C437.024 460.043 445.25 470 461.701 470C469.783 470 475.843 467.547 479.884 462.64C484.213 457.445 486.378 448.498 486.378 435.799V411.122C486.378 397.268 483.925 387.455 479.018 381.683C474.112 375.622 466.175 372.591 455.207 372.591H439.189V329.299H456.506C466.03 329.299 473.102 326.845 477.72 321.939C482.626 317.032 485.079 308.807 485.079 297.262V275.183C485.079 264.793 482.915 257.144 478.585 252.238C474.256 247.331 468.484 244.878 461.268 244.878C445.972 244.878 438.323 254.258 438.323 273.018V292.933H393.299V276.915C393.299 252.671 399.215 234.055 411.049 221.067C423.171 208.079 440.488 201.585 463 201.585C485.801 201.585 503.118 208.079 514.951 221.067C526.785 233.766 532.701 252.238 532.701 276.482V287.305C532.701 303.756 529.959 317.032 524.476 327.134C518.992 336.947 510.478 344.018 498.933 348.348V349.213C511.343 353.831 520.291 361.335 525.774 371.726C531.258 382.116 534 395.392 534 411.555V438.396C534 462.64 527.939 481.256 515.817 494.244C503.984 506.943 486.378 513.293 463 513.293Z" fill="#FFF6E6"/>
<path d="M463 513.293C439.622 513.293 421.872 506.799 409.75 493.811C397.917 480.823 392 462.207 392 437.963V413.287H437.024V440.128C437.024 460.043 445.25 470 461.701 470C469.783 470 475.843 467.547 479.884 462.64C484.213 457.445 486.378 448.498 486.378 435.799V411.122C486.378 397.268 483.925 387.455 479.018 381.683C474.112 375.622 466.175 372.591 455.207 372.591H439.189V329.299H456.506C466.03 329.299 473.102 326.845 477.72 321.939C482.626 317.032 485.079 308.807 485.079 297.262V275.183C485.079 264.793 482.915 257.144 478.585 252.238C474.256 247.331 468.484 244.878 461.268 244.878C445.972 244.878 438.323 254.258 438.323 273.018V292.933H393.299V276.915C393.299 252.671 399.215 234.055 411.049 221.067C423.171 208.079 440.488 201.585 463 201.585C485.801 201.585 503.118 208.079 514.951 221.067C526.785 233.766 532.701 252.238 532.701 276.482V287.305C532.701 303.756 529.959 317.032 524.476 327.134C518.992 336.947 510.478 344.018 498.933 348.348V349.213C511.343 353.831 520.291 361.335 525.774 371.726C531.258 382.116 534 395.392 534 411.555V438.396C534 462.64 527.939 481.256 515.817 494.244C503.984 506.943 486.378 513.293 463 513.293Z" fill="url(#paint4_linear_201_586)" fill-opacity="0.4"/>
</g>
<defs>
<filter id="filter0_d_201_586" x="189.698" y="184.466" width="202.893" height="368.439" filterUnits="userSpaceOnUse" color-interpolation-filters="sRGB">
<feFlood flood-opacity="0" result="BackgroundImageFix"/>
<feColorMatrix in="SourceAlpha" type="matrix" values="0 0 0 0 0 0 0 0 0 0 0 0 0 0 0 0 0 0 127 0" result="hardAlpha"/>
<feOffset dy="10"/>
<feGaussianBlur stdDeviation="15"/>
<feComposite in2="hardAlpha" operator="out"/>
<feColorMatrix type="matrix" values="0 0 0 0 0.0710416 0 0 0 0 0.352625 0 0 0 0 0.775 0 0 0 1 0"/>
<feBlend mode="normal" in2="BackgroundImageFix" result="effect1_dropShadow_201_586"/>
<feBlend mode="normal" in="SourceGraphic" in2="effect1_dropShadow_201_586" result="shape"/>
</filter>
<filter id="filter1_d_201_586" x="362" y="181.585" width="202" height="371.707" filterUnits="userSpaceOnUse" color-interpolation-filters="sRGB">
<feFlood flood-opacity="0" result="BackgroundImageFix"/>
<feColorMatrix in="SourceAlpha" type="matrix" values="0 0 0 0 0 0 0 0 0 0 0 0 0 0 0 0 0 0 127 0" result="hardAlpha"/>
<feOffset dy="10"/>
<feGaussianBlur stdDeviation="15"/>
<feComposite in2="hardAlpha" operator="out"/>
<feColorMatrix type="matrix" values="0 0 0 0 0.0710416 0 0 0 0 0.352625 0 0 0 0 0.775 0 0 0 1 0"/>
<feBlend mode="normal" in2="BackgroundImageFix" result="effect1_dropShadow_201_586"/>
<feBlend mode="normal" in="SourceGraphic" in2="effect1_dropShadow_201_586" result="shape"/>
</filter>
<linearGradient id="paint0_linear_201_586" x1="6.54931" y1="374.613" x2="742.675" y2="374.613" gradientUnits="userSpaceOnUse">
<stop stop-color="#EDD9A4"/>
<stop offset="0.3333" stop-color="#EA981C"/>
<stop offset="0.6667" stop-color="#9F650D"/>
<stop offset="1" stop-color="#411D09"/>
</linearGradient>
<linearGradient id="paint1_linear_201_586" x1="6.54903" y1="374.777" x2="970.658" y2="374.777" gradientUnits="userSpaceOnUse">
<stop stop-color="#EDCBA4"/>
<stop offset="0.3333" stop-color="#EAA41C"/>
<stop offset="0.6667" stop-color="#9F6D0D"/>
<stop offset="1" stop-color="#412B09"/>
</linearGradient>
<linearGradient id="paint2_linear_201_586" x1="6.37634" y1="374.738" x2="1479.29" y2="374.738" gradientUnits="userSpaceOnUse">
<stop stop-color="#EDDDA4"/>
<stop offset="0.3333" stop-color="#F29C37"/>
<stop offset="0.6667" stop-color="#9F7F0D"/>
<stop offset="1" stop-color="#413B09"/>
</linearGradient>
<linearGradient id="paint3_linear_201_586" x1="219.698" y1="204.466" x2="362.591" y2="204.466" gradientUnits="userSpaceOnUse">
<stop stop-color="#544D40"/>
<stop offset="0.166667" stop-color="#ACA495"/>
<stop offset="0.333333" stop-color="#DBD2C3"/>
<stop offset="0.5" stop-color="#E9E0D1"/>
<stop offset="0.666667" stop-color="#DBD2C3"/>
<stop offset="0.833333" stop-color="#ACA495"/>
<stop offset="1" stop-color="#544D40"/>
</linearGradient>
<linearGradient id="paint4_linear_201_586" x1="392" y1="201.585" x2="534" y2="201.585" gradientUnits="userSpaceOnUse">
<stop stop-color="#544D40"/>
<stop offset="0.166667" stop-color="#ACA495"/>
<stop offset="0.333333" stop-color="#DBD2C3"/>
<stop offset="0.5" stop-color="#E9E0D1"/>
<stop offset="0.666667" stop-color="#DBD2C3"/>
<stop offset="0.833333" stop-color="#ACA495"/>
<stop offset="1" stop-color="#544D40"/>
</linearGradient>
</defs>
</svg>
