<svg width="750" height="749" viewBox="0 0 750 749" fill="none" xmlns="http://www.w3.org/2000/svg">
<g clip-path="url(#clip0_2_729)">
<path d="M155.789 250.284L48.0677 561.614L371.57 623.211L155.789 250.284Z" fill="#FF9FD7"/>
<path d="M155.789 250.285L371.57 1.29285L48.0674 188.067L155.789 250.285Z" fill="#F472C3"/>
<path d="M48.0677 188.068V561.616L155.789 250.286L48.0677 188.068Z" fill="#E166B2"/>
<path d="M586.408 250.286L371.571 1.29352L155.79 250.286H586.408Z" fill="#FF98D5"/>
<path d="M586.407 250.286L695.072 561.616V188.068L586.407 250.286Z" fill="#E166B2"/>
<path d="M695.072 188.068L371.57 1.29352L586.407 250.286L695.072 188.068Z" fill="#F472C3"/>
<path d="M371.57 623.211L695.072 561.614L586.407 250.284L371.57 623.211Z" fill="#FF9FD7"/>
<path d="M48.0677 561.616L371.57 748.39V623.213L48.0677 561.616Z" fill="#C63C98"/>
<path d="M371.57 748.39L695.072 561.616L371.57 623.213V748.39Z" fill="#C63C98"/>
<path d="M371.571 623.211L586.408 250.284H155.79L371.571 623.211Z" fill="#FFB8E4"/>
<path d="M155.789 250.284L48.0677 561.614L371.57 623.211L155.789 250.284Z" fill="url(#paint0_linear_2_729)"/>
<path d="M155.789 250.285L371.57 1.29285L48.0674 188.067L155.789 250.285Z" fill="url(#paint1_linear_2_729)"/>
<path d="M48.0677 188.068V561.616L155.789 250.286L48.0677 188.068Z" fill="url(#paint2_linear_2_729)"/>
<path d="M586.408 250.286L371.571 1.29352L155.79 250.286H586.408Z" fill="url(#paint3_linear_2_729)"/>
<path d="M586.407 250.286L695.072 561.616V188.068L586.407 250.286Z" fill="url(#paint4_linear_2_729)"/>
<path d="M695.072 188.068L371.57 1.29352L586.407 250.286L695.072 188.068Z" fill="url(#paint5_linear_2_729)"/>
<path d="M371.57 623.211L695.072 561.614L586.407 250.284L371.57 623.211Z" fill="url(#paint6_linear_2_729)"/>
<path d="M48.0677 561.616L371.57 748.39V623.213L48.0677 561.616Z" fill="url(#paint7_linear_2_729)"/>
<path d="M371.57 748.39L695.072 561.616L371.57 623.213V748.39Z" fill="url(#paint8_linear_2_729)"/>
<path d="M371.571 623.211L586.408 250.284H155.79L371.571 623.211Z" fill="url(#paint9_linear_2_729)"/>
<g opacity="0.95" filter="url(#filter0_d_2_729)">
<path d="M289.883 253.877C289.883 376.915 157.099 397.624 157.099 523.099V575.482H350.793V514.572H224.1C223.491 511.526 223.491 508.481 223.491 505.435C223.491 435.389 356.884 385.442 356.884 251.44C356.884 183.221 322.774 144.239 256.991 144.239C191.209 144.239 157.099 183.221 157.099 251.44V292.859H220.445V247.177C220.445 216.722 233.846 205.149 255.164 205.149C276.483 205.149 289.883 215.504 289.883 253.877ZM531.381 253.877C531.381 376.915 398.598 397.624 398.598 523.099V575.482H592.291V514.572H465.599C464.99 511.526 464.99 508.481 464.99 505.435C464.99 435.389 598.382 385.442 598.382 251.44C598.382 183.221 564.273 144.239 498.49 144.239C432.707 144.239 398.598 183.221 398.598 251.44V292.859H461.944V247.177C461.944 216.722 475.344 205.149 496.663 205.149C517.981 205.149 531.381 215.504 531.381 253.877Z" fill="white"/>
<path d="M157.099 575.482H148.111V584.47H157.099V575.482ZM350.793 575.482V584.47H359.781V575.482H350.793ZM350.793 514.572H359.781V505.584H350.793V514.572ZM224.1 514.572L215.287 516.334L216.732 523.56H224.1V514.572ZM157.099 292.859H148.111V301.847H157.099V292.859ZM220.445 292.859V301.847H229.433V292.859H220.445ZM280.895 253.877C280.895 311.522 250.211 345.096 216.863 381.503C183.744 417.661 148.111 456.534 148.111 523.099H166.087C166.087 464.189 196.846 429.971 230.119 393.645C263.163 357.57 298.871 319.27 298.871 253.877H280.895ZM148.111 523.099V575.482H166.087V523.099H148.111ZM157.099 584.47H350.793V566.494H157.099V584.47ZM359.781 575.482V514.572H341.805V575.482H359.781ZM350.793 505.584H224.1V523.56H350.793V505.584ZM232.913 512.809C232.507 510.778 232.479 508.62 232.479 505.435H214.503C214.503 508.341 214.475 512.275 215.287 516.334L232.913 512.809ZM232.479 505.435C232.479 490.857 239.406 476.546 251.517 460.444C263.762 444.163 279.776 427.908 296.942 408.35C330.669 369.926 365.872 321.822 365.872 251.44H347.896C347.896 315.061 316.402 358.931 283.432 396.492C267.251 414.927 249.916 432.667 237.151 449.639C224.25 466.79 214.503 484.99 214.503 505.435H232.479ZM365.872 251.44C365.872 215.946 356.998 186.657 338.232 166.184C319.347 145.582 291.682 135.251 256.991 135.251V153.227C288.084 153.227 310.365 162.387 324.981 178.331C339.714 194.404 347.896 218.716 347.896 251.44H365.872ZM256.991 135.251C222.301 135.251 194.636 145.582 175.751 166.184C156.984 186.657 148.111 215.946 148.111 251.44H166.087C166.087 218.716 174.268 194.404 189.002 178.331C203.618 162.387 225.899 153.227 256.991 153.227V135.251ZM148.111 251.44V292.859H166.087V251.44H148.111ZM157.099 301.847H220.445V283.871H157.099V301.847ZM229.433 292.859V247.177H211.457V292.859H229.433ZM229.433 247.177C229.433 233.065 232.564 225.13 236.499 220.746C240.259 216.558 246.098 214.137 255.164 214.137V196.161C242.912 196.161 231.392 199.526 223.122 208.738C215.027 217.755 211.457 230.833 211.457 247.177H229.433ZM255.164 214.137C264.427 214.137 269.923 216.347 273.549 220.799C277.585 225.755 280.895 235.356 280.895 253.877H298.871C298.871 234.024 295.48 219.261 287.487 209.447C279.083 199.128 267.22 196.161 255.164 196.161V214.137ZM398.598 575.482H389.61V584.47H398.598V575.482ZM592.291 575.482V584.47H601.279V575.482H592.291ZM592.291 514.572H601.279V505.584H592.291V514.572ZM465.599 514.572L456.785 516.334L458.23 523.56H465.599V514.572ZM398.598 292.859H389.61V301.847H398.598V292.859ZM461.944 292.859V301.847H470.932V292.859H461.944ZM522.393 253.877C522.393 311.522 491.709 345.096 458.362 381.503C425.243 417.661 389.61 456.534 389.61 523.099H407.586C407.586 464.189 438.345 429.971 471.617 393.645C504.662 357.57 540.369 319.27 540.369 253.877H522.393ZM389.61 523.099V575.482H407.586V523.099H389.61ZM398.598 584.47H592.291V566.494H398.598V584.47ZM601.279 575.482V514.572H583.303V575.482H601.279ZM592.291 505.584H465.599V523.56H592.291V505.584ZM474.412 512.809C474.006 510.778 473.978 508.62 473.978 505.435H456.002C456.002 508.341 455.973 512.275 456.785 516.334L474.412 512.809ZM473.978 505.435C473.978 490.857 480.904 476.546 493.015 460.444C505.261 444.163 521.274 427.908 538.441 408.35C572.168 369.926 607.37 321.822 607.37 251.44H589.394C589.394 315.061 557.9 358.931 524.931 396.492C508.75 414.927 491.414 432.667 478.649 449.639C465.749 466.79 456.002 484.99 456.002 505.435H473.978ZM607.37 251.44C607.37 215.946 598.497 186.657 579.73 166.184C560.845 145.582 533.181 135.251 498.49 135.251V153.227C529.582 153.227 551.864 162.387 566.479 178.331C581.213 194.404 589.394 218.716 589.394 251.44H607.37ZM498.49 135.251C463.8 135.251 436.135 145.582 417.25 166.184C398.483 186.657 389.61 215.946 389.61 251.44H407.586C407.586 218.716 415.767 194.404 430.501 178.331C445.116 162.387 467.398 153.227 498.49 153.227V135.251ZM389.61 251.44V292.859H407.586V251.44H389.61ZM398.598 301.847H461.944V283.871H398.598V301.847ZM470.932 292.859V247.177H452.956V292.859H470.932ZM470.932 247.177C470.932 233.065 474.062 225.13 477.997 220.746C481.757 216.558 487.596 214.137 496.663 214.137V196.161C484.411 196.161 472.89 199.526 464.621 208.738C456.526 217.755 452.956 230.833 452.956 247.177H470.932ZM496.663 214.137C505.925 214.137 511.421 216.347 515.047 220.799C519.084 225.755 522.393 235.356 522.393 253.877H540.369C540.369 234.024 536.979 219.261 528.986 209.447C520.582 199.128 508.719 196.161 496.663 196.161V214.137Z" fill="#CC50A3"/>
</g>
</g>
<defs>
<filter id="filter0_d_2_729" x="120.456" y="133.246" width="514.569" height="504.529" filterUnits="userSpaceOnUse" color-interpolation-filters="sRGB">
<feFlood flood-opacity="0" result="BackgroundImageFix"/>
<feColorMatrix in="SourceAlpha" type="matrix" values="0 0 0 0 0 0 0 0 0 0 0 0 0 0 0 0 0 0 127 0" result="hardAlpha"/>
<feOffset dy="25.65"/>
<feGaussianBlur stdDeviation="18.3215"/>
<feComposite in2="hardAlpha" operator="out"/>
<feColorMatrix type="matrix" values="0 0 0 0 0.408333 0 0 0 0 0.153125 0 0 0 0 0.311701 0 0 0 0.53 0"/>
<feBlend mode="normal" in2="BackgroundImageFix" result="effect1_dropShadow_2_729"/>
<feBlend mode="normal" in="SourceGraphic" in2="effect1_dropShadow_2_729" result="shape"/>
</filter>
<linearGradient id="paint0_linear_2_729" x1="47.9019" y1="561.327" x2="263.857" y2="436.645" gradientUnits="userSpaceOnUse">
<stop stop-color="white" stop-opacity="0.4"/>
<stop offset="1" stop-color="white" stop-opacity="0"/>
</linearGradient>
<linearGradient id="paint1_linear_2_729" x1="75.0032" y1="234.721" x2="398.506" y2="47.9469" gradientUnits="userSpaceOnUse">
<stop stop-color="white" stop-opacity="0.4"/>
<stop offset="1" stop-color="white" stop-opacity="0"/>
</linearGradient>
<linearGradient id="paint2_linear_2_729" x1="-32.8078" y1="421.535" x2="182.793" y2="297.058" gradientUnits="userSpaceOnUse">
<stop stop-color="white" stop-opacity="0.4"/>
<stop offset="1" stop-color="white" stop-opacity="0"/>
</linearGradient>
<linearGradient id="paint3_linear_2_729" x1="182.681" y1="296.863" x2="505.645" y2="110.4" gradientUnits="userSpaceOnUse">
<stop stop-color="white" stop-opacity="0.4"/>
<stop offset="1" stop-color="white" stop-opacity="0"/>
</linearGradient>
<linearGradient id="paint4_linear_2_729" x1="614.084" y1="421.341" x2="775.835" y2="327.954" gradientUnits="userSpaceOnUse">
<stop stop-color="white" stop-opacity="0.4"/>
<stop offset="1" stop-color="white" stop-opacity="0"/>
</linearGradient>
<linearGradient id="paint5_linear_2_729" x1="344.123" y1="76.7027" x2="689.811" y2="202.523" gradientUnits="userSpaceOnUse">
<stop stop-color="white" stop-opacity="0.4"/>
<stop offset="1" stop-color="white" stop-opacity="0"/>
</linearGradient>
<linearGradient id="paint6_linear_2_729" x1="344.785" y1="576.819" x2="667.395" y2="390.559" gradientUnits="userSpaceOnUse">
<stop stop-color="white" stop-opacity="0.4"/>
<stop offset="1" stop-color="white" stop-opacity="0"/>
</linearGradient>
<linearGradient id="paint7_linear_2_729" x1="128.943" y1="701.697" x2="344.898" y2="577.015" gradientUnits="userSpaceOnUse">
<stop stop-color="white" stop-opacity="0.4"/>
<stop offset="1" stop-color="white" stop-opacity="0"/>
</linearGradient>
<linearGradient id="paint8_linear_2_729" x1="344.468" y1="701.449" x2="667.97" y2="514.675" gradientUnits="userSpaceOnUse">
<stop stop-color="white" stop-opacity="0.4"/>
<stop offset="1" stop-color="white" stop-opacity="0"/>
</linearGradient>
<linearGradient id="paint9_linear_2_729" x1="263.503" y1="436.85" x2="586.467" y2="250.386" gradientUnits="userSpaceOnUse">
<stop stop-color="white" stop-opacity="0.5"/>
<stop offset="1" stop-color="white" stop-opacity="0"/>
</linearGradient>
<clipPath id="clip0_2_729">
<rect width="750" height="749" fill="white"/>
</clipPath>
</defs>
</svg>
