<svg width="750" height="750" viewBox="0 0 750 750" fill="none" xmlns="http://www.w3.org/2000/svg">
<path fill-rule="evenodd" clip-rule="evenodd" d="M590.278 137.322L551.41 70L199.803 70L24 374.5L199.803 679.001H277.54L590.278 137.322ZM336.208 679.001H304.838L603.927 160.963L619.612 188.13L336.208 679.001ZM391.103 679.001H362.348L632.682 210.767L647.06 235.67L391.103 679.001ZM440.772 679.001H417.245L660.131 258.31L671.894 278.685L440.772 679.001ZM481.293 679.001H466.915L684.966 301.325L692.155 313.777L481.293 679.001ZM517.889 679.001H507.433L705.225 336.415L710.453 345.471L517.889 679.001ZM547.953 679.001H542.017L722.517 366.366L725.485 371.507L547.953 679.001Z" fill="url(#paint0_linear_502_392)"/>
<g filter="url(#filter0_d_502_392)">
<path d="M180.352 495.961C180.352 468.961 184.672 445.921 193.312 426.842C201.952 407.402 217.431 385.982 239.751 362.582C261.711 339.183 276.83 319.203 285.11 302.643C293.75 286.084 298.07 268.804 298.07 250.804C298.07 234.604 295.37 223.444 289.97 217.325C284.93 210.845 277.37 207.605 267.291 207.605C246.771 207.605 236.511 220.025 236.511 244.864V285.364H180.352V248.644C180.352 218.045 187.912 194.645 203.032 178.445C218.151 161.885 240.111 153.605 268.911 153.605C297.71 153.605 319.67 161.885 334.79 178.445C349.909 194.645 357.469 218.045 357.469 248.644C357.469 271.684 351.889 294.183 340.73 316.143C329.93 338.103 311.03 363.302 284.03 391.742C266.391 410.462 254.511 425.762 248.391 437.641C242.271 449.161 239.211 461.581 239.211 474.901V483.001H352.069V537H180.352V495.961ZM481.878 542.4C452.719 542.4 430.579 534.3 415.459 518.1C400.7 501.9 393.32 478.681 393.32 448.441V417.662H449.479V451.141C449.479 475.981 459.739 488.401 480.259 488.401C490.338 488.401 497.898 485.341 502.938 479.221C508.338 472.741 511.038 461.581 511.038 445.741V414.962C511.038 397.682 507.978 385.442 501.858 378.242C495.738 370.682 485.838 366.902 472.159 366.902H452.179V312.903H473.779C485.658 312.903 494.478 309.843 500.238 303.723C506.358 297.603 509.418 287.344 509.418 272.944V245.404C509.418 232.444 506.718 222.904 501.318 216.785C495.918 210.665 488.718 207.605 479.719 207.605C460.639 207.605 451.099 219.305 451.099 242.704V267.544H394.94V247.564C394.94 217.325 402.32 194.105 417.079 177.905C432.199 161.705 453.799 153.605 481.878 153.605C510.318 153.605 531.918 161.705 546.678 177.905C561.437 193.745 568.817 216.785 568.817 247.024V260.524C568.817 281.044 565.397 297.603 558.557 310.203C551.718 322.443 541.098 331.263 526.698 336.663V337.743C542.178 343.503 553.337 352.863 560.177 365.822C567.017 378.782 570.437 395.342 570.437 415.502V448.981C570.437 479.221 562.877 502.44 547.758 518.64C532.998 534.48 511.038 542.4 481.878 542.4Z" fill="white" shape-rendering="crispEdges"/>
<path d="M193.312 426.842L205.086 432.173L205.105 432.132L205.123 432.091L193.312 426.842ZM239.751 362.582L249.104 371.504L249.14 371.466L249.176 371.427L239.751 362.582ZM285.11 302.643L273.651 296.664L273.599 296.763L273.55 296.863L285.11 302.643ZM289.97 217.325L279.768 225.26L280.013 225.576L280.278 225.876L289.97 217.325ZM236.511 285.364V298.289H249.436V285.364H236.511ZM180.352 285.364H167.426V298.289H180.352V285.364ZM203.032 178.445L212.481 187.264L212.529 187.213L212.577 187.16L203.032 178.445ZM334.79 178.445L325.244 187.16L325.292 187.213L325.34 187.264L334.79 178.445ZM340.73 316.143L329.207 310.287L329.168 310.363L329.131 310.439L340.73 316.143ZM284.03 391.742L274.657 382.843L274.64 382.86L274.623 382.878L284.03 391.742ZM248.391 437.641L259.805 443.705L259.844 443.633L259.881 443.561L248.391 437.641ZM239.211 483.001H226.286V495.926H239.211V483.001ZM352.069 483.001H364.995V470.075H352.069V483.001ZM352.069 537V549.925H364.995V537H352.069ZM180.352 537H167.426V549.925H180.352V537ZM193.277 495.961C193.277 470.289 197.39 449.168 205.086 432.173L181.537 421.51C171.953 442.675 167.426 467.633 167.426 495.961H193.277ZM205.123 432.091C212.932 414.52 227.332 394.329 249.104 371.504L230.398 353.661C207.531 377.635 190.971 400.283 181.5 421.592L205.123 432.091ZM249.176 371.427C271.463 347.679 287.567 326.631 296.671 308.424L273.55 296.863C266.093 311.775 251.958 330.687 230.326 353.737L249.176 371.427ZM296.57 308.622C306.135 290.289 310.996 270.965 310.996 250.804H285.145C285.145 266.642 281.365 281.879 273.651 296.664L296.57 308.622ZM310.996 250.804C310.996 234.111 308.407 218.683 299.662 208.773L280.278 225.876C282.334 228.205 285.145 235.098 285.145 250.804H310.996ZM300.173 209.389C292.126 199.043 280.352 194.679 267.291 194.679V220.53C274.389 220.53 277.735 222.646 279.768 225.26L300.173 209.389ZM267.291 194.679C254.319 194.679 242.472 198.724 234.241 208.688C226.401 218.179 223.586 230.989 223.586 244.864H249.436C249.436 233.9 251.751 228.08 254.171 225.151C256.2 222.695 259.743 220.53 267.291 220.53V194.679ZM223.586 244.864V285.364H249.436V244.864H223.586ZM236.511 272.438H180.352V298.289H236.511V272.438ZM193.277 285.364V248.644H167.426V285.364H193.277ZM193.277 248.644C193.277 220.06 200.327 200.287 212.481 187.264L193.582 169.626C175.497 189.003 167.426 216.03 167.426 248.644H193.277ZM212.577 187.16C224.595 173.998 242.646 166.531 268.911 166.531V140.68C237.576 140.68 211.708 149.773 193.486 169.73L212.577 187.16ZM268.911 166.531C295.175 166.531 313.226 173.998 325.244 187.16L344.335 169.73C326.113 149.773 300.245 140.68 268.911 140.68V166.531ZM325.34 187.264C337.495 200.287 344.544 220.06 344.544 248.644H370.395C370.395 216.03 362.324 189.003 344.239 169.626L325.34 187.264ZM344.544 248.644C344.544 269.509 339.51 290.013 329.207 310.287L352.252 321.999C364.269 298.354 370.395 273.858 370.395 248.644H344.544ZM329.131 310.439C319.147 330.74 301.229 354.853 274.657 382.843L293.404 400.641C320.831 371.752 340.713 345.466 352.328 321.847L329.131 310.439ZM274.623 382.878C256.77 401.824 243.873 418.188 236.901 431.722L259.881 443.561C265.149 433.335 276.011 419.1 293.437 400.606L274.623 382.878ZM236.976 431.577C229.843 445.005 226.286 459.513 226.286 474.901H252.136C252.136 463.649 254.699 453.317 259.805 443.705L236.976 431.577ZM226.286 474.901V483.001H252.136V474.901H226.286ZM239.211 495.926H352.069V470.075H239.211V495.926ZM339.144 483.001V537H364.995V483.001H339.144ZM352.069 524.075H180.352V549.925H352.069V524.075ZM193.277 537V495.961H167.426V537H193.277ZM415.459 518.1L405.905 526.805L405.957 526.863L406.01 526.919L415.459 518.1ZM393.32 417.662V404.736H380.394V417.662H393.32ZM449.479 417.662H462.404V404.736H449.479V417.662ZM502.938 479.221L493.009 470.946L492.985 470.975L492.961 471.004L502.938 479.221ZM501.858 378.242L491.812 386.375L491.91 386.495L492.01 386.613L501.858 378.242ZM452.179 366.902H439.254V379.828H452.179V366.902ZM452.179 312.903V299.978H439.254V312.903H452.179ZM500.238 303.723L491.099 294.584L490.96 294.722L490.826 294.865L500.238 303.723ZM501.318 216.785L511.01 208.233L511.01 208.233L501.318 216.785ZM451.099 267.544V280.469H464.024V267.544H451.099ZM394.94 267.544H382.014V280.469H394.94V267.544ZM417.079 177.905L407.63 169.086L407.577 169.143L407.525 169.2L417.079 177.905ZM546.678 177.905L537.123 186.61L537.172 186.664L537.221 186.717L546.678 177.905ZM558.557 310.203L569.841 316.508L569.879 316.439L569.917 316.37L558.557 310.203ZM526.698 336.663L522.159 324.56L513.772 327.706V336.663H526.698ZM526.698 337.743H513.772V346.725L522.19 349.857L526.698 337.743ZM560.177 365.822L548.746 371.855L548.746 371.855L560.177 365.822ZM547.758 518.64L538.308 509.821L538.301 509.829L547.758 518.64ZM481.878 529.475C455.114 529.475 436.877 522.104 424.909 509.281L406.01 526.919C424.282 546.496 450.324 555.325 481.878 555.325V529.475ZM425.014 509.395C413.129 496.351 406.245 476.691 406.245 448.441H380.394C380.394 480.67 388.27 507.45 405.905 526.805L425.014 509.395ZM406.245 448.441V417.662H380.394V448.441H406.245ZM393.32 430.587H449.479V404.736H393.32V430.587ZM436.554 417.662V451.141H462.404V417.662H436.554ZM436.554 451.141C436.554 465.017 439.369 477.827 447.209 487.318C455.44 497.282 467.287 501.326 480.259 501.326V475.475C472.711 475.475 469.168 473.31 467.139 470.854C464.719 467.925 462.404 462.105 462.404 451.141H436.554ZM480.259 501.326C493.064 501.326 504.779 497.318 512.916 487.438L492.961 471.004C491.017 473.364 487.613 475.475 480.259 475.475V501.326ZM512.868 487.495C521.296 477.382 523.963 462.287 523.963 445.741H498.113C498.113 460.875 495.381 468.1 493.009 470.946L512.868 487.495ZM523.963 445.741V414.962H498.113V445.741H523.963ZM523.963 414.962C523.963 396.868 520.9 380.687 511.707 369.871L492.01 386.613C495.056 390.197 498.113 398.496 498.113 414.962H523.963ZM511.904 370.11C502.447 358.427 488.076 353.977 472.159 353.977V379.828C483.601 379.828 489.03 382.938 491.812 386.375L511.904 370.11ZM472.159 353.977H452.179V379.828H472.159V353.977ZM465.104 366.902V312.903H439.254V366.902H465.104ZM452.179 325.829H473.779V299.978H452.179V325.829ZM473.779 325.829C487.718 325.829 500.579 322.22 509.65 312.582L490.826 294.865C488.377 297.466 483.599 299.978 473.779 299.978V325.829ZM509.378 312.863C519.108 303.133 522.343 288.618 522.343 272.944H496.493C496.493 286.069 493.609 292.074 491.099 294.584L509.378 312.863ZM522.343 272.944V245.404H496.493V272.944H522.343ZM522.343 245.404C522.343 231.051 519.419 217.762 511.01 208.233L491.626 225.336C494.018 228.046 496.493 233.838 496.493 245.404H522.343ZM511.01 208.233C502.888 199.027 492 194.679 479.719 194.679V220.53C485.437 220.53 488.949 222.302 491.626 225.336L511.01 208.233ZM479.719 194.679C467.41 194.679 456.089 198.582 448.236 208.212C440.796 217.337 438.174 229.58 438.174 242.704H464.024C464.024 232.429 466.172 227.122 468.271 224.548C469.959 222.478 472.947 220.53 479.719 220.53V194.679ZM438.174 242.704V267.544H464.024V242.704H438.174ZM451.099 254.618H394.94V280.469H451.099V254.618ZM407.865 267.544V247.564H382.014V267.544H407.865ZM407.865 247.564C407.865 219.314 414.749 199.654 426.634 186.61L407.525 169.2C389.89 188.556 382.014 215.335 382.014 247.564H407.865ZM426.529 186.724C438.587 173.805 456.364 166.531 481.878 166.531V140.68C451.234 140.68 425.812 149.606 407.63 169.086L426.529 186.724ZM481.878 166.531C507.828 166.531 525.491 173.843 537.123 186.61L556.232 169.2C538.345 149.568 512.809 140.68 481.878 140.68V166.531ZM537.221 186.717C548.998 199.356 555.892 218.751 555.892 247.024H581.743C581.743 214.818 573.876 188.134 556.134 169.094L537.221 186.717ZM555.892 247.024V260.524H581.743V247.024H555.892ZM555.892 260.524C555.892 279.761 552.662 293.971 547.198 304.037L569.917 316.37C578.132 301.236 581.743 282.327 581.743 260.524H555.892ZM547.274 303.898C542.074 313.204 533.994 320.123 522.159 324.56L531.236 348.765C548.202 342.403 561.361 331.683 569.841 316.508L547.274 303.898ZM513.772 336.663V337.743H539.623V336.663H513.772ZM522.19 349.857C535.099 354.66 543.579 362.065 548.746 371.855L571.608 359.789C563.096 343.66 549.256 332.345 531.205 325.629L522.19 349.857ZM548.746 371.855C554.306 382.39 557.512 396.695 557.512 415.502H583.363C583.363 393.989 579.728 375.175 571.608 359.789L548.746 371.855ZM557.512 415.502V448.981H583.363V415.502H557.512ZM557.512 448.981C557.512 477.157 550.487 496.773 538.308 509.821L557.207 527.459C575.268 508.108 583.363 481.284 583.363 448.981H557.512ZM538.301 509.829C526.748 522.228 508.747 529.475 481.878 529.475V555.325C513.33 555.325 539.248 546.732 557.214 527.452L538.301 509.829Z" fill="#3A0A15" fill-opacity="0.57"/>
</g>
<defs>
<filter id="filter0_d_502_392" x="180.352" y="153.605" width="415.936" height="414.645" filterUnits="userSpaceOnUse" color-interpolation-filters="sRGB">
<feFlood flood-opacity="0" result="BackgroundImageFix"/>
<feColorMatrix in="SourceAlpha" type="matrix" values="0 0 0 0 0 0 0 0 0 0 0 0 0 0 0 0 0 0 127 0" result="hardAlpha"/>
<feOffset dx="25.8507" dy="25.8507"/>
<feComposite in2="hardAlpha" operator="out"/>
<feColorMatrix type="matrix" values="0 0 0 0 0.308333 0 0 0 0 0.0629514 0 0 0 0 0.122771 0 0 0 0.55 0"/>
<feBlend mode="normal" in2="BackgroundImageFix" result="effect1_dropShadow_502_392"/>
<feBlend mode="normal" in="SourceGraphic" in2="effect1_dropShadow_502_392" result="shape"/>
</filter>
<linearGradient id="paint0_linear_502_392" x1="210.206" y1="93" x2="500.267" y2="681.686" gradientUnits="userSpaceOnUse">
<stop stop-color="#E61C4C"/>
<stop offset="1" stop-color="#53F3A6"/>
</linearGradient>
</defs>
</svg>
