<svg width="750" height="750" viewBox="0 0 750 750" fill="none" xmlns="http://www.w3.org/2000/svg">
<path d="M374.612 6.54956L6.54944 377.391L374.612 742.676L742.676 375.539L374.612 6.54956Z" fill="url(#paint0_linear_2_861)"/>
<mask id="mask0_2_861" style="mask-type:alpha" maskUnits="userSpaceOnUse" x="6" y="98" width="737" height="553">
<path d="M374.612 98.7969L6.54932 377.392L374.612 650.891L742.675 375.539L374.612 98.7969Z" fill="#C4C4C4"/>
</mask>
<g mask="url(#mask0_2_861)">
<path d="M6.54919 6.54932H970.659V743.005H6.54919V6.54932Z" fill="url(#paint1_linear_2_861)"/>
</g>
<mask id="mask1_2_861" style="mask-type:alpha" maskUnits="userSpaceOnUse" x="6" y="191" width="737" height="368">
<path d="M374.612 191.043L6.54932 377.127L374.612 558.992L742.675 375.481L374.612 191.043Z" fill="#C4C4C4"/>
</mask>
<g mask="url(#mask1_2_861)">
<path d="M6.37659 6.5105H1479.29V742.966H6.37659V6.5105Z" fill="url(#paint2_linear_2_861)"/>
</g>
<g filter="url(#filter0_d_2_861)">
<path d="M314.67 282.882C314.67 370.883 219.698 385.695 219.698 475.439V512.905H358.234V469.34H267.62C267.184 467.162 267.184 464.983 267.184 462.805C267.184 412.705 362.591 376.982 362.591 281.14C362.591 232.347 338.195 204.466 291.145 204.466C244.095 204.466 219.698 232.347 219.698 281.14V310.764H265.006V278.09C265.006 256.308 274.59 248.03 289.838 248.03C305.085 248.03 314.67 255.436 314.67 282.882Z" fill="#FFF6E6"/>
<path d="M314.67 282.882C314.67 370.883 219.698 385.695 219.698 475.439V512.905H358.234V469.34H267.62C267.184 467.162 267.184 464.983 267.184 462.805C267.184 412.705 362.591 376.982 362.591 281.14C362.591 232.347 338.195 204.466 291.145 204.466C244.095 204.466 219.698 232.347 219.698 281.14V310.764H265.006V278.09C265.006 256.308 274.59 248.03 289.838 248.03C305.085 248.03 314.67 255.436 314.67 282.882Z" fill="url(#paint3_linear_2_861)" fill-opacity="0.4"/>
<path d="M487.397 282.882C487.397 370.883 392.426 385.695 392.426 475.439V512.905H530.962V469.34H440.347C439.912 467.162 439.912 464.983 439.912 462.805C439.912 412.705 535.319 376.982 535.319 281.14C535.319 232.347 510.922 204.466 463.872 204.466C416.822 204.466 392.426 232.347 392.426 281.14V310.764H437.733V278.09C437.733 256.308 447.318 248.03 462.565 248.03C477.813 248.03 487.397 255.436 487.397 282.882Z" fill="#FFF6E6"/>
<path d="M487.397 282.882C487.397 370.883 392.426 385.695 392.426 475.439V512.905H530.962V469.34H440.347C439.912 467.162 439.912 464.983 439.912 462.805C439.912 412.705 535.319 376.982 535.319 281.14C535.319 232.347 510.922 204.466 463.872 204.466C416.822 204.466 392.426 232.347 392.426 281.14V310.764H437.733V278.09C437.733 256.308 447.318 248.03 462.565 248.03C477.813 248.03 487.397 255.436 487.397 282.882Z" fill="url(#paint4_linear_2_861)" fill-opacity="0.4"/>
</g>
<defs>
<filter id="filter0_d_2_861" x="189.698" y="184.466" width="375.62" height="368.439" filterUnits="userSpaceOnUse" color-interpolation-filters="sRGB">
<feFlood flood-opacity="0" result="BackgroundImageFix"/>
<feColorMatrix in="SourceAlpha" type="matrix" values="0 0 0 0 0 0 0 0 0 0 0 0 0 0 0 0 0 0 127 0" result="hardAlpha"/>
<feOffset dy="10"/>
<feGaussianBlur stdDeviation="15"/>
<feComposite in2="hardAlpha" operator="out"/>
<feColorMatrix type="matrix" values="0 0 0 0 0.0710416 0 0 0 0 0.352625 0 0 0 0 0.775 0 0 0 1 0"/>
<feBlend mode="normal" in2="BackgroundImageFix" result="effect1_dropShadow_2_861"/>
<feBlend mode="normal" in="SourceGraphic" in2="effect1_dropShadow_2_861" result="shape"/>
</filter>
<linearGradient id="paint0_linear_2_861" x1="6.54931" y1="374.613" x2="742.675" y2="374.613" gradientUnits="userSpaceOnUse">
<stop stop-color="#A4DBED"/>
<stop offset="0.3333" stop-color="#1C87EA"/>
<stop offset="0.6667" stop-color="#0D6A9F"/>
<stop offset="1" stop-color="#093041"/>
</linearGradient>
<linearGradient id="paint1_linear_2_861" x1="6.54903" y1="374.777" x2="970.658" y2="374.777" gradientUnits="userSpaceOnUse">
<stop stop-color="#A4D3ED"/>
<stop offset="0.3333" stop-color="#1CC5EA"/>
<stop offset="0.6667" stop-color="#0D629F"/>
<stop offset="1" stop-color="#091941"/>
</linearGradient>
<linearGradient id="paint2_linear_2_861" x1="6.37634" y1="374.738" x2="1479.29" y2="374.738" gradientUnits="userSpaceOnUse">
<stop stop-color="#A4D3ED"/>
<stop offset="0.3333" stop-color="#1C93EA"/>
<stop offset="0.6667" stop-color="#0D9F96"/>
<stop offset="1" stop-color="#094119"/>
</linearGradient>
<linearGradient id="paint3_linear_2_861" x1="219.698" y1="204.466" x2="535.319" y2="204.466" gradientUnits="userSpaceOnUse">
<stop stop-color="#544D40"/>
<stop offset="0.166667" stop-color="#ACA495"/>
<stop offset="0.333333" stop-color="#DBD2C3"/>
<stop offset="0.5" stop-color="#E9E0D1"/>
<stop offset="0.666667" stop-color="#DBD2C3"/>
<stop offset="0.833333" stop-color="#ACA495"/>
<stop offset="1" stop-color="#544D40"/>
</linearGradient>
<linearGradient id="paint4_linear_2_861" x1="219.698" y1="204.466" x2="535.319" y2="204.466" gradientUnits="userSpaceOnUse">
<stop stop-color="#544D40"/>
<stop offset="0.166667" stop-color="#ACA495"/>
<stop offset="0.333333" stop-color="#DBD2C3"/>
<stop offset="0.5" stop-color="#E9E0D1"/>
<stop offset="0.666667" stop-color="#DBD2C3"/>
<stop offset="0.833333" stop-color="#ACA495"/>
<stop offset="1" stop-color="#544D40"/>
</linearGradient>
</defs>
</svg>
