<svg width="512" height="512" viewBox="0 0 512 512" fill="none" xmlns="http://www.w3.org/2000/svg">
<path d="M255.735 4.47119L4.47119 257.633L255.735 507L507 256.368L255.735 4.47119Z" fill="url(#paint0_linear_201_43)"/>
<mask id="mask0_201_43" style="mask-type:alpha" maskUnits="userSpaceOnUse" x="4" y="67" width="503" height="378">
<path d="M255.735 67.4453L4.47119 257.633L255.735 444.342L507 256.368L255.735 67.4453Z" fill="#C4C4C4"/>
</mask>
<g mask="url(#mask0_201_43)">
<path d="M4.47119 4.47095H662.637V507.224H4.47119V4.47095Z" fill="url(#paint1_linear_201_43)"/>
</g>
<mask id="mask1_201_43" style="mask-type:alpha" maskUnits="userSpaceOnUse" x="4" y="130" width="503" height="252">
<path d="M255.735 130.419L4.47119 257.452L255.735 381.605L507 256.329L255.735 130.419Z" fill="#C4C4C4"/>
</mask>
<g mask="url(#mask1_201_43)">
<path d="M4.35327 4.44458H1009.86V507.198H4.35327V4.44458Z" fill="url(#paint2_linear_201_43)"/>
</g>
<g filter="url(#filter0_d_201_43)">
<path d="M214.814 193.114C214.814 253.19 149.98 263.301 149.98 324.566V350.143H244.554V320.403H182.695C182.397 318.916 182.397 317.429 182.397 315.942C182.397 281.74 247.529 257.353 247.529 191.925C247.529 158.616 230.874 139.582 198.754 139.582C166.635 139.582 149.98 158.616 149.98 191.925V212.148H180.91V189.843C180.91 174.973 187.453 169.322 197.862 169.322C208.271 169.322 214.814 174.378 214.814 193.114Z" fill="#FFF6E6"/>
<path d="M214.814 193.114C214.814 253.19 149.98 263.301 149.98 324.566V350.143H244.554V320.403H182.695C182.397 318.916 182.397 317.429 182.397 315.942C182.397 281.74 247.529 257.353 247.529 191.925C247.529 158.616 230.874 139.582 198.754 139.582C166.635 139.582 149.98 158.616 149.98 191.925V212.148H180.91V189.843C180.91 174.973 187.453 169.322 197.862 169.322C208.271 169.322 214.814 174.378 214.814 193.114Z" fill="url(#paint3_linear_201_43)" fill-opacity="0.4"/>
<path d="M332.73 193.114C332.73 253.19 267.896 263.301 267.896 324.566V350.143H362.47V320.403H300.61C300.313 318.916 300.313 317.429 300.313 315.942C300.313 281.74 365.444 257.353 365.444 191.925C365.444 158.616 348.789 139.582 316.67 139.582C284.55 139.582 267.896 158.616 267.896 191.925V212.148H298.826V189.843C298.826 174.973 305.369 169.322 315.778 169.322C326.187 169.322 332.73 174.378 332.73 193.114Z" fill="#FFF6E6"/>
<path d="M332.73 193.114C332.73 253.19 267.896 263.301 267.896 324.566V350.143H362.47V320.403H300.61C300.313 318.916 300.313 317.429 300.313 315.942C300.313 281.74 365.444 257.353 365.444 191.925C365.444 158.616 348.789 139.582 316.67 139.582C284.55 139.582 267.896 158.616 267.896 191.925V212.148H298.826V189.843C298.826 174.973 305.369 169.322 315.778 169.322C326.187 169.322 332.73 174.378 332.73 193.114Z" fill="url(#paint4_linear_201_43)" fill-opacity="0.4"/>
</g>
<defs>
<filter id="filter0_d_201_43" x="119.98" y="119.582" width="275.463" height="270.561" filterUnits="userSpaceOnUse" color-interpolation-filters="sRGB">
<feFlood flood-opacity="0" result="BackgroundImageFix"/>
<feColorMatrix in="SourceAlpha" type="matrix" values="0 0 0 0 0 0 0 0 0 0 0 0 0 0 0 0 0 0 127 0" result="hardAlpha"/>
<feOffset dy="10"/>
<feGaussianBlur stdDeviation="15"/>
<feComposite in2="hardAlpha" operator="out"/>
<feColorMatrix type="matrix" values="0 0 0 0 0.0710416 0 0 0 0 0.352625 0 0 0 0 0.775 0 0 0 1 0"/>
<feBlend mode="normal" in2="BackgroundImageFix" result="effect1_dropShadow_201_43"/>
<feBlend mode="normal" in="SourceGraphic" in2="effect1_dropShadow_201_43" result="shape"/>
</filter>
<linearGradient id="paint0_linear_201_43" x1="4.47111" y1="255.736" x2="507" y2="255.736" gradientUnits="userSpaceOnUse">
<stop stop-color="#A4DBED"/>
<stop offset="0.3333" stop-color="#1C87EA"/>
<stop offset="0.6667" stop-color="#0D6A9F"/>
<stop offset="1" stop-color="#093041"/>
</linearGradient>
<linearGradient id="paint1_linear_201_43" x1="4.47108" y1="255.848" x2="662.636" y2="255.848" gradientUnits="userSpaceOnUse">
<stop stop-color="#A4D3ED"/>
<stop offset="0.3333" stop-color="#1CC5EA"/>
<stop offset="0.6667" stop-color="#0D629F"/>
<stop offset="1" stop-color="#091941"/>
</linearGradient>
<linearGradient id="paint2_linear_201_43" x1="4.3531" y1="255.821" x2="1009.86" y2="255.821" gradientUnits="userSpaceOnUse">
<stop stop-color="#A4D3ED"/>
<stop offset="0.3333" stop-color="#1C93EA"/>
<stop offset="0.6667" stop-color="#0D9F96"/>
<stop offset="1" stop-color="#094119"/>
</linearGradient>
<linearGradient id="paint3_linear_201_43" x1="149.98" y1="139.582" x2="365.444" y2="139.582" gradientUnits="userSpaceOnUse">
<stop stop-color="#544D40"/>
<stop offset="0.166667" stop-color="#ACA495"/>
<stop offset="0.333333" stop-color="#DBD2C3"/>
<stop offset="0.5" stop-color="#E9E0D1"/>
<stop offset="0.666667" stop-color="#DBD2C3"/>
<stop offset="0.833333" stop-color="#ACA495"/>
<stop offset="1" stop-color="#544D40"/>
</linearGradient>
<linearGradient id="paint4_linear_201_43" x1="149.98" y1="139.582" x2="365.444" y2="139.582" gradientUnits="userSpaceOnUse">
<stop stop-color="#544D40"/>
<stop offset="0.166667" stop-color="#ACA495"/>
<stop offset="0.333333" stop-color="#DBD2C3"/>
<stop offset="0.5" stop-color="#E9E0D1"/>
<stop offset="0.666667" stop-color="#DBD2C3"/>
<stop offset="0.833333" stop-color="#ACA495"/>
<stop offset="1" stop-color="#544D40"/>
</linearGradient>
</defs>
</svg>
