<svg width="749" height="749" viewBox="0 0 749 749" fill="none" xmlns="http://www.w3.org/2000/svg">
<path d="M374.452 374.508L68.0127 197.585V551.432L374.452 728.354V374.508Z" fill="url(#paint0_linear_1_79)"/>
<path d="M68.0127 197.585L374.452 374.509L680.892 197.585L374.452 20.6621L68.0127 197.585Z" fill="url(#paint1_linear_1_79)"/>
<path d="M374.451 728.354L680.891 551.432V197.585L374.451 374.508V728.354Z" fill="url(#paint2_linear_1_79)"/>
<path d="M374.452 26.4356L675.891 200.472V548.546L374.452 722.581L73.0127 548.546V200.472L374.452 26.4356Z" stroke="black" stroke-opacity="0.3" stroke-width="10"/>
<path d="M315.47 282.459C315.47 389.144 200.307 407.101 200.307 515.899V561.319H368.297V508.505H258.417C257.889 505.864 257.889 503.224 257.889 500.583C257.889 439.846 373.58 396.538 373.58 280.347C373.58 221.195 343.997 187.393 286.944 187.393C229.89 187.393 200.307 221.195 200.307 280.347V316.261H255.247V276.65C255.247 250.243 266.869 240.208 285.359 240.208C303.848 240.208 315.47 249.186 315.47 282.459Z" fill="#FFF6E6"/>
<path d="M445.68 279.29H490.583V561.319H548.693V191.619H509.601C500.62 216.441 490.583 238.095 445.68 238.095V279.29Z" fill="#FFF6E6"/>
<path d="M195.307 561.319V566.319H200.307H368.297H373.297V561.319V508.505V503.505H368.297H262.918C262.891 502.597 262.889 501.633 262.889 500.583C262.889 487.031 269.334 474.018 279.961 459.893C287.18 450.298 295.942 440.656 305.404 430.246C309.969 425.223 314.696 420.021 319.492 414.559C348.625 381.376 378.58 340.323 378.58 280.347C378.58 250 370.991 225.377 355.342 208.309C339.627 191.169 316.471 182.393 286.944 182.393C257.417 182.393 234.26 191.169 218.545 208.309C202.896 225.377 195.307 250 195.307 280.347V316.261V321.261H200.307H255.247H260.247V316.261V276.65C260.247 264.067 263.031 256.387 267.09 251.867C271.052 247.454 277 245.208 285.359 245.208C293.827 245.208 299.584 247.242 303.471 252.014C307.587 257.067 310.47 266.194 310.47 282.459C310.47 333.594 283.134 363.431 254.291 394.912L254.202 395.009C225.454 426.387 195.307 459.371 195.307 515.899V561.319ZM440.68 279.29V284.29H445.68H485.583V561.319V566.319H490.583H548.693H553.693V561.319V191.619V186.619H548.693H509.601H506.093L504.899 189.918C500.393 202.371 495.971 212.891 487.724 220.488C479.677 227.901 467.308 233.095 445.68 233.095H440.68V238.095V279.29Z" stroke="#123036" stroke-opacity="0.5" stroke-width="10"/>
<defs>
<linearGradient id="paint0_linear_1_79" x1="68.0126" y1="551.431" x2="414.82" y2="354.843" gradientUnits="userSpaceOnUse">
<stop stop-color="#E9A062"/>
<stop offset="0.25" stop-color="#D45660"/>
<stop offset="0.5" stop-color="#C65577"/>
<stop offset="0.75" stop-color="#A9559D"/>
<stop offset="1" stop-color="#9B55A7"/>
</linearGradient>
<linearGradient id="paint1_linear_1_79" x1="-24.5825" y1="453.11" x2="78.8543" y2="-161.841" gradientUnits="userSpaceOnUse">
<stop stop-color="#ED4A4F"/>
<stop offset="0.25" stop-color="#BF4C9C"/>
<stop offset="0.5" stop-color="#7552CC"/>
<stop offset="0.75" stop-color="#2F74ED"/>
<stop offset="1" stop-color="#1595E7"/>
</linearGradient>
<linearGradient id="paint2_linear_1_79" x1="156.199" y1="684.474" x2="778.164" y2="333.68" gradientUnits="userSpaceOnUse">
<stop stop-color="#ED4A4F"/>
<stop offset="0.25" stop-color="#BF4C9C"/>
<stop offset="0.5" stop-color="#7552CC"/>
<stop offset="0.75" stop-color="#2F74ED"/>
<stop offset="1" stop-color="#1595E7"/>
</linearGradient>
</defs>
</svg>
