<svg width="1213" height="236" viewBox="0 0 1213 236" fill="none" xmlns="http://www.w3.org/2000/svg">
<g clip-path="url(#clip0_9_352)">
<path d="M247 112.878C250.007 54.437 297.011 7.43297 355.452 4.42497V112.878H247ZM367.367 4.27497H475.82C472.813 62.715 425.809 109.72 367.368 112.727L367.367 4.27497ZM247 233.4C250.007 174.958 297.011 127.954 355.452 124.947V233.4H247ZM367.367 124.795H475.82C472.813 183.237 425.809 230.241 367.368 233.248L367.367 124.795ZM482.086 112.878C485.093 54.437 532.097 7.43297 590.538 4.42497L590.539 112.878H482.086ZM602.457 4.27497H710.909C707.902 62.715 660.898 109.72 602.457 112.727V4.27497ZM482.086 233.4C485.093 174.958 532.097 127.954 590.538 124.947L590.539 233.4H482.086ZM602.457 124.795H710.909C707.902 183.237 660.898 230.241 602.457 233.248V124.795ZM0 112.878C3.007 54.437 50.011 7.43297 108.452 4.42497V112.878H0ZM228.975 4.27197C225.968 62.714 178.964 109.718 120.523 112.725V4.27197H228.975ZM108.452 233.248C50.012 230.241 3.007 183.237 0 124.795H108.452V233.248ZM120.523 124.947C178.965 127.954 225.969 174.958 228.976 233.4H120.523V124.947Z" fill="#FFF6E6"/>
<path d="M795.403 61.8089C795.403 51.6799 793.678 44.8913 790.23 41.4432C786.998 37.7795 782.58 35.9476 776.976 35.9476C771.373 35.9476 766.847 37.6717 763.399 41.1199C760.167 44.3526 758.55 50.0636 758.55 58.253V82.4979H724.931V60.5158C724.931 42.1974 729.349 28.1893 738.185 18.4913C747.236 8.57783 760.49 3.62109 777.946 3.62109C795.403 3.62109 808.549 8.57783 817.385 18.4913C826.436 28.1893 830.962 42.1974 830.962 60.5158C830.962 73.0154 829.022 84.222 825.143 94.1355C821.479 103.833 816.846 112.777 811.243 120.966C805.639 129.156 799.605 136.699 793.14 143.595C786.674 150.276 780.856 156.741 775.683 162.991C770.511 169.025 766.416 175.06 763.399 181.094C760.382 187.128 759.412 193.486 760.49 200.167H827.729V232.493H724.931V204.692C724.931 193.701 726.655 184.003 730.103 175.598C733.551 167.193 737.861 159.543 743.034 152.647C748.421 145.535 754.132 138.962 760.167 132.927C766.201 126.678 771.804 120.104 776.976 113.208C782.364 106.312 786.782 98.7689 790.23 90.5795C793.678 82.1746 795.403 72.5844 795.403 61.8089Z" fill="#FFF6E6"/>
<path d="M850.191 60.5158C850.191 42.1974 854.824 28.1893 864.091 18.4913C873.358 8.57783 886.72 3.62109 904.176 3.62109C921.633 3.62109 934.994 8.57783 944.261 18.4913C953.528 28.1893 958.162 42.1974 958.162 60.5158V178.185C958.162 196.503 953.528 210.619 944.261 220.532C934.994 230.23 921.633 235.079 904.176 235.079C886.72 235.079 873.358 230.23 864.091 220.532C854.824 210.619 850.191 196.503 850.191 178.185V60.5158ZM885.75 180.447C885.75 188.637 887.367 194.456 890.599 197.904C894.047 201.136 898.573 202.753 904.176 202.753C909.78 202.753 914.198 201.136 917.43 197.904C920.878 194.456 922.603 188.637 922.603 180.447V58.253C922.603 50.0636 920.878 44.3526 917.43 41.1199C914.198 37.6717 909.78 35.9476 904.176 35.9476C898.573 35.9476 894.047 37.6717 890.599 41.1199C887.367 44.3526 885.75 50.0636 885.75 58.253V180.447Z" fill="#FFF6E6"/>
<path d="M1051.74 61.8089C1051.74 51.6799 1050.02 44.8913 1046.57 41.4432C1043.34 37.7795 1038.92 35.9476 1033.32 35.9476C1027.71 35.9476 1023.19 37.6717 1019.74 41.1199C1016.51 44.3526 1014.89 50.0636 1014.89 58.253V82.4979H981.27V60.5158C981.27 42.1974 985.688 28.1893 994.524 18.4913C1003.58 8.57783 1016.83 3.62109 1034.29 3.62109C1051.74 3.62109 1064.89 8.57783 1073.72 18.4913C1082.78 28.1893 1087.3 42.1974 1087.3 60.5158C1087.3 73.0154 1085.36 84.222 1081.48 94.1355C1077.82 103.833 1073.19 112.777 1067.58 120.966C1061.98 129.156 1055.94 136.699 1049.48 143.595C1043.01 150.276 1037.2 156.741 1032.02 162.991C1026.85 169.025 1022.76 175.06 1019.74 181.094C1016.72 187.128 1015.75 193.486 1016.83 200.167H1084.07V232.493H981.27V204.692C981.27 193.701 982.994 184.003 986.442 175.598C989.891 167.193 994.201 159.543 999.373 152.647C1004.76 145.535 1010.47 138.962 1016.51 132.927C1022.54 126.678 1028.14 120.104 1033.32 113.208C1038.7 106.312 1043.12 98.7689 1046.57 90.5795C1050.02 82.1746 1051.74 72.5844 1051.74 61.8089Z" fill="#FFF6E6"/>
<path d="M1179.91 61.8089C1179.91 51.6799 1178.19 44.8913 1174.74 41.4432C1171.51 37.7795 1167.09 35.9476 1161.49 35.9476C1155.88 35.9476 1151.36 37.6717 1147.91 41.1199C1144.68 44.3526 1143.06 50.0636 1143.06 58.253V82.4979H1109.44V60.5158C1109.44 42.1974 1113.86 28.1893 1122.69 18.4913C1131.75 8.57783 1145 3.62109 1162.46 3.62109C1179.91 3.62109 1193.06 8.57783 1201.89 18.4913C1210.95 28.1893 1215.47 42.1974 1215.47 60.5158C1215.47 73.0154 1213.53 84.222 1209.65 94.1355C1205.99 103.833 1201.36 112.777 1195.75 120.966C1190.15 129.156 1184.11 136.699 1177.65 143.595C1171.18 150.276 1165.36 156.741 1160.19 162.991C1155.02 169.025 1150.93 175.06 1147.91 181.094C1144.89 187.128 1143.92 193.486 1145 200.167H1212.24V232.493H1109.44V204.692C1109.44 193.701 1111.16 184.003 1114.61 175.598C1118.06 167.193 1122.37 159.543 1127.54 152.647C1132.93 145.535 1138.64 138.962 1144.68 132.927C1150.71 126.678 1156.31 120.104 1161.49 113.208C1166.87 106.312 1171.29 98.7689 1174.74 90.5795C1178.19 82.1746 1179.91 72.5844 1179.91 61.8089Z" fill="#FFF6E6"/>
</g>
<defs>
<clipPath id="clip0_9_352">
<rect width="1213" height="236" fill="white"/>
</clipPath>
</defs>
</svg>
