<?xml version="1.0" encoding="UTF-8" standalone="no"?>
<!DOCTYPE svg PUBLIC "-//W3C//DTD SVG 1.1//EN" "http://www.w3.org/Graphics/SVG/1.1/DTD/svg11.dtd">
<svg xmlns="http://www.w3.org/2000/svg" xmlns:xlink="http://www.w3.org/1999/xlink" version="1.1" width="264.74415pt" height="60pt" viewBox="0 0 264.74415 60">
<g enable-background="new">
<path transform="matrix(1,0,0,-1,0,60)" d="M 51.96151 45.000005 L 38.971147 52.5 L 25.980763 60 L 0 45.000005 L 0 14.999996 L 25.980763 0 L 51.961526 14.999996 L 51.961526 29.999917 L 38.971147 37.50003 L 51.96151 45.000005 Z M 38.97115 22.499993 L 25.980763 14.999996 L 12.990382 22.499997 L 12.990382 37.499994 L 25.980763 45 L 38.971147 37.499994 L 25.980763 29.999993 L 38.97115 22.499993 Z " fill="#ffffff"/>
<path transform="matrix(1,0,0,-1,66.96094,45.436525)" d="M 15.777726 29.088782 L 20.906468 29.088782 L 20.906468 9.356831 C 20.906468 3.993187 17.265458 -.000185 11.001347 -.000185 C 4.658936 -.000185 1.879241 4.228092 1.566032 7.4776 L 7.125429 7.4776 C 7.360333 6.30308 8.299951 4.776201 11.079649 4.776201 C 13.898494 4.776201 15.347072 6.342232 15.347072 8.769575 L 15.347072 11.627575 C 14.290003 10.218149 12.254169 8.96533 9.357018 8.96533 C 3.641017 8.96533 0 13.545959 0 19.261961 C 0 24.97796 3.641017 29.558594 9.357018 29.558594 C 12.254169 29.558594 14.485758 28.462374 15.777726 26.583142 L 15.777726 29.088782 Z M 10.531539 24.664753 C 7.556087 24.664753 5.559403 22.472315 5.559403 19.261958 C 5.559403 16.051602 7.556087 13.859161 10.531539 13.859161 C 13.50699 13.859161 15.503675 16.0516 15.503675 19.261958 C 15.503675 22.472317 13.50699 24.664753 10.531539 24.664753 Z " fill="#ffffff"/>
<path transform="matrix(1,0,0,-1,91.41211,36.86328)" d="M 11.588602 15.464745 C 11.227111 15.534399 10.860426 15.573685 10.492383 15.582191 C 7.242877 15.582191 5.559398 13.977013 5.559398 10.218546 L 5.559398 .000217 L 0 .000217 L 0 20.515183 L 5.128741 20.515183 L 5.128741 17.852936 C 5.872605 19.066609 7.438628 20.710938 10.923039 20.710938 C 11.118793 20.710938 11.588602 20.671788 11.588602 20.671788 L 11.588602 15.464745 Z " fill="#ffffff"/>
<path transform="matrix(1,0,0,-1,104.52734,37.33203)" d="M 0 6.302783 C 0 9.865497 2.466489 11.979635 7.947586 12.84095 L 13.428681 13.663115 L 13.428681 13.858869 C 13.428681 15.855555 12.175868 16.87347 9.748525 16.87347 C 7.16458 16.87347 6.146662 15.777252 5.950909 14.367826 L .469807 14.367826 C .783013 17.93054 3.210353 21.454102 9.709368 21.454102 C 15.738574 21.454102 18.714028 18.596102 18.714028 13.819717 L 18.714028 4.149496 C 18.714028 2.818373 18.948933 1.291494 19.301289 .46933 L 13.937639 .46933 C 13.89849 .46933 13.702745 1.408947 13.702745 2.74007 C 12.410772 .899988 10.335776 -.000477 7.20372 -.000477 C 2.466486 -.000477 0 2.622622 0 6.302783 Z M 8.495702 8.886736 C 6.10751 8.456079 5.363648 7.594761 5.363648 6.459391 C 5.363648 5.049967 6.224955 4.306105 8.456544 4.306105 C 11.706052 4.306105 13.428681 6.185338 13.428681 8.886736 L 13.428681 9.7089 L 8.495702 8.886736 Z " fill="#ffffff"/>
<path transform="matrix(1,0,0,-1,126.52734,45.00586)" d="M 5.55941 -.000185 L 0 -.000185 L 0 28.658123 L 5.128741 28.658123 L 5.128741 26.152478 C 6.420714 28.031712 8.730614 29.12793 11.627766 29.12793 C 17.578669 29.12793 21.06308 24.351546 21.06308 18.40064 C 21.06308 12.449736 17.578669 7.673351 11.627766 7.673351 C 8.730614 7.673351 6.616478 8.926172 5.55941 10.335596 L 5.55941 -.000185 Z M 10.453244 12.567186 C 13.546149 12.567186 15.503683 15.072832 15.503683 18.40064 C 15.503683 21.728449 13.546149 24.234093 10.453244 24.234093 C 7.360339 24.234093 5.402805 21.728449 5.402805 18.40064 C 5.402805 15.072832 7.360342 12.567186 10.453244 12.567186 Z " fill="#ffffff"/>
<path transform="matrix(1,0,0,-1,149.99024,36.86328)" d="M 5.559411 18.63599 C 6.61648 20.045416 8.574009 20.985032 11.236257 20.985032 C 16.169245 20.985032 18.792344 17.696375 18.792344 12.802538 L 18.792344 .000259 L 13.232945 .000259 L 13.232945 12.176126 C 13.232945 14.564318 12.215029 16.208647 9.748526 16.208647 C 7.047127 16.208647 5.559398 14.525168 5.559398 11.706318 L 5.559398 .000259 L 0 .000259 L 0 29.363282 L 5.559398 29.363282 L 5.559411 18.63599 Z " fill="#ffffff"/>
<path transform="matrix(1,0,0,-1,171.22852,45.00586)" d="M 9.435315 7.673351 C 3.484411 7.673351 0 12.449734 0 18.40064 C 0 24.351548 3.484416 29.12793 9.435315 29.12793 C 12.332467 29.12793 14.642355 28.031712 15.934327 26.152478 L 15.934327 28.658123 L 21.063069 28.658123 L 21.063069 -.000185 L 15.503671 -.000185 L 15.503671 10.335596 C 14.446606 8.926172 12.332467 7.673351 9.435315 7.673351 Z M 10.609837 24.234093 C 7.516932 24.234093 5.559398 21.728449 5.559398 18.40064 C 5.559398 15.072832 7.516932 12.567186 10.609837 12.567186 C 13.702742 12.567186 15.660275 15.072832 15.660275 18.40064 C 15.660275 21.728449 13.702738 24.234093 10.609837 24.234093 Z " fill="#ffffff"/>
<path transform="matrix(1,0,0,-1,195.54883,36.86328)" d="M 0 .000259 L 0 29.363282 L 5.559398 29.363282 L 5.559398 .000259 L 0 .000259 Z " fill="#ffffff"/>
<path transform="matrix(1,0,0,-1,204.9082,37.176759)" d="M 0 2.11438 C 0 3.328051 .900458 4.228516 2.15328 4.228516 C 3.366952 4.228516 4.306574 3.328051 4.306574 2.11438 C 4.306574 .861558 3.366952 .000241 2.15328 .000241 C .900458 .000241 0 .861558 0 2.11438 Z " fill="#ffffff"/>
<path transform="matrix(1,0,0,-1,207.77344,36.86328)" d="M 15.268777 16.404173 L 15.229607 16.404173 L 9.787669 .000034 L 6.890523 .000034 L 0 19.927733 L 2.975448 19.927733 L 8.339084 3.288689 L 13.820191 19.927735 L 16.717337 19.927735 L 22.12013 3.288691 L 27.562094 19.927735 L 30.498385 19.927735 L 23.529572 .000038 L 20.632426 .000038 L 15.268777 16.404173 Z " fill="#ffffff"/>
<path transform="matrix(1,0,0,-1,240.02539,36.941408)" d="M 11.079624 .19552 C 11.079624 .19552 10.374927 -.000237 8.965502 -.000237 C 5.598542 -.000237 3.797603 1.839849 3.797603 5.441711 L 3.797603 17.656727 L 0 17.656727 L 0 20.005768 L 3.797603 20.005768 L 3.797603 25.682618 L 6.577314 25.682618 L 6.577314 20.005768 L 11.15794 20.005768 L 11.15794 17.656727 L 6.577314 17.656727 L 6.577314 5.637465 C 6.577314 3.523327 7.399472 2.505407 9.317856 2.505407 C 9.9099 2.51613 10.499667 2.581663 11.079624 2.701164 L 11.079624 .19552 Z " fill="#ffffff"/>
<path transform="matrix(1,0,0,-1,253.58594,36.86621)" d="M 3.875918 23.220025 C 3.875918 27.409148 6.303258 29.366683 9.787669 29.366683 C 10.23265 29.37123 10.677417 29.345067 11.118795 29.28838 L 11.118795 26.743586 C 10.756434 26.802145 10.389594 26.828349 10.022589 26.821887 C 7.8693 26.821887 6.655629 25.88227 6.655629 23.337477 L 6.655629 19.931366 L 11.15794 19.931366 L 11.15794 17.582325 L 6.655629 17.582325 L 6.655629 .003666 L 3.875918 .003666 L 3.875918 17.582325 L 0 17.582325 L 0 19.931366 L 3.875918 19.931366 L 3.875918 23.220025 Z " fill="#ffffff"/>
</g>
</svg>
