<svg width="2169" height="693" viewBox="0 0 2169 693" fill="none" xmlns="http://www.w3.org/2000/svg">
<g clip-path="url(#clip0_326_702)">
<path d="M383.199 214.38H320.737L230.515 448.546H287.065L301.716 408.704H387.054L371.632 365.007H315.339L351.839 264.246L416.871 448.546H473.421L383.199 214.38ZM1332.46 448.546V214.38H1382.58V404.592H1481.54V448.546H1332.46ZM1621.63 448.546V214.38H1672.01V404.592H1770.97V448.546H1621.63ZM1054.34 256.278C1095.98 256.278 1129.65 289.951 1129.65 331.592C1129.65 373.232 1095.98 406.905 1054.34 406.905C1012.7 406.905 979.024 373.232 979.024 331.592C979.024 289.951 1012.95 256.278 1054.34 256.278M1054.34 210.524C987.507 210.524 933.271 264.76 933.271 331.592C933.271 398.423 987.507 452.659 1054.34 452.659C1121.17 452.659 1175.41 398.423 1175.41 331.592C1175.41 264.76 1121.17 210.524 1054.34 210.524V210.524ZM2001.8 256.278C2043.44 256.278 2077.11 289.951 2077.11 331.592C2077.11 373.232 2043.44 406.905 2001.8 406.905C1960.16 406.905 1926.48 373.232 1926.48 331.592C1926.48 289.951 1960.16 256.278 2001.8 256.278ZM2001.8 210.524C1934.97 210.524 1880.73 264.76 1880.73 331.592C1880.73 398.423 1934.97 452.659 2001.8 452.659C2068.63 452.659 2122.87 398.423 2122.87 331.592C2122.87 264.76 2068.63 210.524 2001.8 210.524ZM728.664 214.38H619.421V448.546H669.287V367.835H728.664C770.305 367.835 803.978 332.62 803.978 290.979C803.978 249.595 770.305 214.38 728.664 214.38V214.38ZM728.664 322.081H669.287V260.134H728.664C744.858 260.134 758.224 274.785 758.224 290.979C758.224 307.172 744.858 322.081 728.664 322.081V322.081Z" fill="white"/>
<path d="M576.495 519.49C572.125 519.49 568.27 521.546 565.956 524.888C565.956 524.888 554.646 537.74 548.734 543.909C523.03 569.613 493.213 589.663 460.055 603.8C425.611 618.451 389.111 625.649 351.325 625.649C313.54 625.649 277.04 618.194 242.596 603.8C209.438 589.663 179.364 569.613 153.916 543.909C128.212 518.205 108.163 488.388 94.0253 455.229C79.3739 420.785 72.1767 384.285 72.1767 346.5C72.1767 308.715 79.6309 272.215 94.0253 237.771C107.906 204.612 127.955 174.538 153.659 149.091C179.364 123.387 209.181 103.337 242.339 89.2C276.783 74.5486 313.283 67.3514 351.068 67.3514C388.854 67.3514 425.354 74.8056 459.797 89.2C483.96 99.4817 506.322 112.848 526.629 129.299C525.6 132.383 524.829 135.982 524.829 139.58C524.829 157.059 538.967 171.197 556.446 171.197C573.925 171.197 588.062 157.059 588.062 139.58C588.062 122.102 573.925 107.964 556.446 107.964C552.076 107.964 547.963 108.735 544.365 110.535C491.671 67.3514 424.583 41.39 351.068 41.39C182.705 41.39 46.2153 177.88 46.2153 346.5C46.2153 515.12 182.705 651.61 351.325 651.61C445.66 651.61 529.713 608.941 585.749 541.596C588.062 539.282 589.604 535.941 589.604 532.599C589.347 525.402 583.435 519.49 576.495 519.49Z" fill="white"/>
</g>
<defs>
<clipPath id="clip0_326_702">
<rect width="2169" height="693" fill="white"/>
</clipPath>
</defs>
</svg>
