<?xml version="1.0" encoding="UTF-8" standalone="no"?>
<!DOCTYPE svg PUBLIC "-//W3C//DTD SVG 1.1//EN" "http://www.w3.org/Graphics/SVG/1.1/DTD/svg11.dtd">
<svg xmlns="http://www.w3.org/2000/svg" xmlns:xlink="http://www.w3.org/1999/xlink" version="1.1" width="266pt" height="60pt" viewBox="0 0 266 60">
<g enable-background="new">
<path transform="matrix(1,0,0,-1,.628906,60)" d="M 51.96147 45 L 38.97117 52.5 L 25.98077 60 L 0 45 L 0 15 L 25.98077 0 L 51.96157 15 L 51.96157 29.9999 L 38.97117 37.5 L 51.96147 45 Z M 38.97117 22.5 L 25.98077 15 L 12.990371 22.5 L 12.990371 37.5 L 25.98077 45 L 38.97117 37.5 L 25.98077 30 L 38.97117 22.5 Z " fill="#ed1e79"/>
<path transform="matrix(1,0,0,-1,67.58984,45.436525)" d="M 15.777702 29.088795 L 20.906403 29.088795 L 20.906403 9.356792 C 20.906403 3.993193 17.265404 -.000206 11.001305 -.000206 C 4.658905 -.000206 1.879202 4.228092 1.566002 7.477592 L 7.125404 7.477592 C 7.360304 6.303093 8.299905 4.776192 11.079605 4.776192 C 13.898505 4.776192 15.347 6.342192 15.347 8.769592 L 15.347 11.627594 C 14.29 10.218094 12.254103 8.965294 9.357002 8.965294 C 3.641002 8.965294 0 13.545893 0 19.261895 C 0 24.977894 3.641002 29.558594 9.357002 29.558594 C 12.254103 29.558594 14.485703 28.462393 15.777702 26.583092 L 15.777702 29.088795 Z M 10.531502 24.664692 C 7.556102 24.664692 5.559402 22.472294 5.559402 19.261895 C 5.559402 16.051594 7.556102 13.859094 10.531502 13.859094 C 13.507002 13.859094 15.503601 16.051594 15.503601 19.261895 C 15.503601 22.472294 13.507002 24.664692 10.531502 24.664692 Z " fill="#ffffff"/>
<path transform="matrix(1,0,0,-1,92.03906,36.86328)" d="M 11.588997 15.464737 C 11.226997 15.534337 10.859997 15.573638 10.491997 15.582138 C 7.242897 15.582138 5.559402 13.976938 5.559402 10.218538 L 5.559402 .000139 L 0 .000139 L 0 20.515137 L 5.128799 20.515137 L 5.128799 17.852938 C 5.8726 19.066538 7.438697 20.710938 10.922997 20.710938 C 11.118997 20.710938 11.588997 20.671738 11.588997 20.671738 L 11.588997 15.464737 Z " fill="#ffffff"/>
<path transform="matrix(1,0,0,-1,105.1543,37.333009)" d="M 0 6.303779 C 0 9.866479 2.466998 11.980577 7.947998 12.841878 L 13.429001 13.664079 L 13.429001 13.859778 C 13.429001 15.856479 12.176001 16.874478 9.749001 16.874478 C 7.165 16.874478 6.147004 15.778177 5.951004 14.368777 L .470001 14.368777 C .783001 17.931477 3.210999 21.455079 9.709999 21.455079 C 15.738998 21.455079 18.714005 18.597079 18.714005 13.820678 L 18.714005 4.150478 C 18.714005 2.819378 18.949002 1.292477 19.302002 .470276 L 13.938004 .470276 C 13.899004 .470276 13.703003 1.409878 13.703003 2.741077 C 12.411003 .900978 10.336002 .000477 7.204002 .000477 C 2.467002 .000477 0 2.623579 0 6.303779 Z M 8.496002 8.887677 C 6.108002 8.457077 5.363998 7.595677 5.363998 6.460378 C 5.363998 5.050879 6.225 4.307076 8.457001 4.307076 C 11.706001 4.307076 13.429001 6.186277 13.429001 8.887677 L 13.429001 9.709878 L 8.496002 8.887677 Z " fill="#ffffff"/>
<path transform="matrix(1,0,0,-1,127.1543,45.00586)" d="M 5.560005 -.000172 L 0 -.000172 L 0 28.65813 L 5.129005 28.65813 L 5.129005 26.152428 C 6.421005 28.031729 8.730998 29.12793 11.627998 29.12793 C 17.578999 29.12793 21.062996 24.35153 21.062996 18.40063 C 21.062996 12.44973 17.578999 7.673328 11.627998 7.673328 C 8.730998 7.673328 6.617005 8.926128 5.560005 10.335529 L 5.560005 -.000172 Z M 10.454002 12.567127 C 13.546002 12.567127 15.504005 15.07283 15.504005 18.40063 C 15.504005 21.72843 13.546002 24.234028 10.454002 24.234028 C 7.361002 24.234028 5.403008 21.72843 5.403008 18.40063 C 5.403008 15.07283 7.361002 12.567127 10.454002 12.567127 Z " fill="#ffffff"/>
<path transform="matrix(1,0,0,-1,150.61719,36.86328)" d="M 5.559998 18.63598 C 6.616998 20.04538 8.573993 20.98508 11.235992 20.98508 C 16.168993 20.98508 18.793 17.69638 18.793 12.802582 L 18.793 .000282 L 13.233002 .000282 L 13.233002 12.176081 C 13.233002 14.564281 12.214993 16.208682 9.748993 16.208682 C 7.046993 16.208682 5.559998 14.525182 5.559998 11.706282 L 5.559998 .000282 L 0 .000282 L 0 29.363282 L 5.559998 29.363282 L 5.559998 18.63598 Z " fill="#ffffff"/>
<path transform="matrix(1,0,0,-1,171.85547,45.00586)" d="M 9.436005 7.673328 C 3.485004 7.673328 0 12.44973 0 18.40063 C 0 24.35153 3.485004 29.12793 9.436005 29.12793 C 12.333005 29.12793 14.642998 28.031729 15.934998 26.152428 L 15.934998 28.65813 L 21.06401 28.65813 L 21.06401 -.000172 L 15.503998 -.000172 L 15.503998 10.335529 C 14.446998 8.926128 12.333005 7.673328 9.436005 7.673328 Z M 10.610001 24.234028 C 7.517001 24.234028 5.559998 21.72843 5.559998 18.40063 C 5.559998 15.07283 7.517001 12.567127 10.610001 12.567127 C 13.703001 12.567127 15.661011 15.07283 15.661011 18.40063 C 15.661011 21.72843 13.703001 24.234028 10.610001 24.234028 Z " fill="#ffffff"/>
<path transform="matrix(1,0,0,-1,196.17774,36.86328)" d="M 0 .000282 L 0 29.363282 L 5.55899 29.363282 L 5.55899 .000282 L 0 .000282 Z " fill="#ffffff"/>
<path transform="matrix(1,0,0,-1,205.53516,37.176759)" d="M 0 2.114414 C 0 3.328114 .901 4.228516 2.153 4.228516 C 3.367 4.228516 4.307007 3.328114 4.307007 2.114414 C 4.307007 .861614 3.367 .000317 2.153 .000317 C .901 .000317 0 .861614 0 2.114414 Z " fill="#ffffff"/>
<path transform="matrix(1,0,0,-1,208.40039,36.86328)" d="M 15.269012 16.404133 L 15.230011 16.404133 L 9.78801 .000032 L 6.891006 .000032 L 0 19.927735 L 2.976013 19.927735 L 8.339005 3.288633 L 13.820999 19.927735 L 16.718003 19.927735 L 22.121003 3.288633 L 27.562012 19.927735 L 30.499009 19.927735 L 23.529999 .000032 L 20.63301 .000032 L 15.269012 16.404133 Z " fill="#ffffff"/>
<path transform="matrix(1,0,0,-1,240.6543,36.94043)" d="M 11.079987 .195518 C 11.079987 .195518 10.374989 -.000282 8.965988 -.000282 C 5.598988 -.000282 3.797989 1.839815 3.797989 5.441715 L 3.797989 17.656716 L 0 17.656716 L 0 20.005719 L 3.797989 20.005719 L 3.797989 25.682618 L 6.577988 25.682618 L 6.577988 20.005719 L 11.15799 20.005719 L 11.15799 17.656716 L 6.577988 17.656716 L 6.577988 5.637417 C 6.577988 3.523317 7.399993 2.505417 9.317993 2.505417 C 9.909993 2.516117 10.499987 2.581619 11.079987 2.701118 L 11.079987 .195518 Z " fill="#ffffff"/>
<path transform="matrix(1,0,0,-1,254.21485,36.867189)" d="M 3.876007 23.220002 C 3.876007 27.409153 6.302995 29.366683 9.787994 29.366683 C 10.231995 29.371232 10.677018 29.345072 11.119019 29.288382 L 11.119019 26.7436 C 10.756019 26.802102 10.389003 26.828303 10.022003 26.821902 C 7.869003 26.821902 6.654999 25.882304 6.654999 23.337502 L 6.654999 19.9314 L 11.15799 19.9314 L 11.15799 17.582303 L 6.654999 17.582303 L 6.654999 .003702 L 3.876007 .003702 L 3.876007 17.582303 L 0 17.582303 L 0 19.9314 L 3.876007 19.9314 L 3.876007 23.220002 Z " fill="#ffffff"/>
</g>
</svg>
