<svg width="744" height="289" viewBox="0 0 744 289" fill="none" xmlns="http://www.w3.org/2000/svg">
<path fill-rule="evenodd" clip-rule="evenodd" d="M11.0352 108.506C14.3709 109.642 17.9288 110.287 21.6425 110.287C24.9782 110.287 28.1956 109.775 31.2341 108.851V196.671C31.2341 199.774 32.8904 202.666 35.5624 204.217L119.555 253.054C123.528 248.384 129.412 245.411 135.982 245.411C143.133 245.411 149.461 248.933 153.405 254.33C153.475 254.428 153.55 254.521 153.619 254.617C153.896 255.013 154.156 255.416 154.407 255.832L154.695 256.306C154.917 256.689 155.122 257.079 155.319 257.474C155.425 257.686 155.526 257.901 155.627 258.116C155.795 258.482 155.953 258.854 156.103 259.232C156.21 259.502 156.305 259.772 156.401 260.046C156.522 260.391 156.64 260.74 156.741 261.092C156.839 261.426 156.917 261.763 157.001 262.1L157.217 263.05C157.301 263.472 157.356 263.899 157.413 264.329C157.445 264.585 157.494 264.834 157.517 265.09C157.584 265.788 157.624 266.491 157.624 267.206C157.624 268.345 157.512 269.452 157.341 270.545L157.281 270.951C155.512 281.189 146.645 289 135.982 289C126.475 289 118.398 282.784 115.498 274.183L25.463 221.836C16.5322 216.646 11.0352 207.051 11.0352 196.671V108.506ZM246.716 55.0747C258.65 55.0747 268.357 64.8502 268.357 76.869C268.357 83.4073 265.472 89.2656 260.93 93.2641V196.671C260.93 207.051 255.433 216.646 246.502 221.836L169.146 266.811C169.06 259.453 166.59 252.679 162.492 247.19L236.403 204.217C239.075 202.666 240.731 199.774 240.731 196.671V97.7973C231.702 95.1762 225.074 86.7956 225.074 76.869C225.074 72.0365 226.664 67.5817 229.319 63.9639C229.359 63.9058 229.402 63.8506 229.443 63.7924C229.945 63.1241 230.481 62.479 231.053 61.8716L231.131 61.7874C232.317 60.5436 233.644 59.4481 235.093 58.5153C235.243 58.4165 235.401 58.3264 235.554 58.2305C236.128 57.8847 236.714 57.5593 237.32 57.2658C237.496 57.1815 237.672 57.0885 237.851 57.0072C238.61 56.6643 239.383 56.3475 240.186 56.0947C240.188 56.0947 240.188 56.0947 240.188 56.0918L241.759 55.6558C243.352 55.2774 245.01 55.0747 246.716 55.0747ZM217.139 102.064V174.142C217.139 182.679 212.577 190.636 205.236 194.905V194.907L147.389 228.503L142.051 231.449L142.115 225.283V199.728L189.726 172.047V146.696L149.199 135.081L217.139 102.064ZM54.8263 102.021L82.2391 115.562V172.044L129.129 199.308V231.185L66.7292 194.908C59.3884 190.636 54.8263 182.68 54.8263 174.142V102.021ZM124.079 53.3466C131.307 49.1476 140.656 49.1476 147.885 53.3466L211.347 90.423L205.316 93.297L181.773 104.929L135.982 78.3054L90.1911 104.929L60.7123 90.362L66.3766 86.9272C66.4286 86.8807 66.5757 86.7819 66.7344 86.6918L124.079 53.3466ZM135.982 0C140.965 0 145.945 1.29603 150.409 3.89101L228.224 49.1359C222.496 53.024 218.064 58.676 215.626 65.2957L140.31 21.5095C138.997 20.7423 137.499 20.3413 135.982 20.3413C134.464 20.3413 132.969 20.7423 131.653 21.5095L42.937 73.0922C43.1505 74.3214 43.2833 75.5768 43.2833 76.8699C43.2833 86.2472 37.3621 94.2356 29.095 97.3042C29.0315 97.3274 28.9652 97.3536 28.9017 97.3739C28.2467 97.6093 27.583 97.8127 26.902 97.9842L26.4951 98.0888C25.8719 98.2341 25.2341 98.3474 24.5936 98.4375L24.0713 98.516C23.272 98.606 22.464 98.6642 21.6416 98.6642C20.7615 98.6642 19.8959 98.5944 19.0389 98.4898C18.808 98.4607 18.583 98.4201 18.355 98.3852C17.6971 98.2835 17.0507 98.1527 16.413 97.9929C16.2168 97.9435 16.0206 97.897 15.8244 97.8418C14.1363 97.3623 12.532 96.6969 11.0343 95.8454L9.74805 95.0528C3.88357 91.1518 0 84.464 0 76.8699C0 64.8511 9.70988 55.0756 21.6416 55.0756C24.7378 55.0756 27.6753 55.744 30.3387 56.9267L121.554 3.89101C126.018 1.29603 131.001 0 135.982 0Z" fill="#FCFCFC"/>
<path d="M330.286 64.3898H359.206V134.179H383.01V64.3898H411.93V41.2857H330.286V64.3898Z" fill="#FCFCFC"/>
<path d="M485.652 41.2857V77.371H447.805V41.2857H424.121V134.179H447.805V99.6415H485.652V134.179H509.455V41.2857H485.652Z" fill="#FCFCFC"/>
<path d="M527.353 134.179H598.643V111.194H551.156V99.2842H590.193V77.7283H551.156V64.3898H598.643V41.2857H527.353V134.179Z" fill="#FCFCFC"/>
<path d="M376.523 212.851H398.816V215.374C394.451 221.567 387.374 225.581 379.118 225.581C365.199 225.581 354.112 214.8 354.112 201.268C354.112 187.735 365.199 176.955 379.118 176.955C387.138 176.955 394.215 180.51 398.816 186.13L418.042 173.515C409.195 162.276 394.923 154.821 379.118 154.821C352.461 154.821 330.286 175.694 330.286 201.268C330.286 226.842 352.461 247.714 379.118 247.714C388.554 247.714 397.872 244.274 402.354 237.622V245.994H420.873V193.813H376.523V212.851Z" fill="#FCFCFC"/>
<path d="M496.069 156.542V205.511C496.069 218.47 489.582 225.581 477.197 225.581C464.93 225.581 458.561 218.47 458.561 205.511V156.542H434.97V206.887C434.97 229.938 449.596 247.714 477.197 247.714C504.68 247.714 519.542 229.938 519.542 206.887V156.542H496.069Z" fill="#FCFCFC"/>
<path d="M535.928 156.542V245.994H559.518V156.542H535.928Z" fill="#FCFCFC"/>
<path d="M577.188 245.994H644.774V223.86H600.66V156.542H577.188V245.994Z" fill="#FCFCFC"/>
<path d="M656.92 245.994H699.619C728.399 245.994 743.143 225.695 743.143 201.268C743.143 176.955 728.399 156.542 699.619 156.542H656.92V245.994ZM697.849 178.79C711.886 178.79 719.317 187.85 719.317 201.268C719.317 214.686 711.886 223.86 697.849 223.86H680.511V178.79H697.849Z" fill="#FCFCFC"/>
</svg>
